<svg version="1.2" xmlns="http://www.w3.org/2000/svg" viewBox="0 0 448 333" width="448" height="333"><style>.a{fill:#263238}.b{fill:#455a64}.c{fill:#ee6c4d}.d{fill:#fafafa}.e{fill:#ffbe9d}.f{fill:#fff}.g{fill:#eb996e}.h{fill:#e0e0e0}</style><path class="a" d="m453.9 305.1c0 0.1-99.8 0.2-222.9 0.2-123.1 0-222.9-0.1-222.9-0.2 0-0.2 99.8-0.3 222.9-0.3 123.1 0 222.9 0.1 222.9 0.3z"/><path class="b" d="m128.9 132l26.1 88.1q0.4 1.5 1.3 2.7 0.8 1.2 2 2.1 1.2 0.9 2.6 1.4 1.4 0.4 2.9 0.4l106 0.3c1.4 0 2.7-0.2 3.9-0.8 1.2-0.5 2.4-1.3 3.3-2.2 0.9-1 1.6-2.1 2.1-3.4 0.4-1.2 0.6-2.6 0.6-3.9-0.1-1.2-0.4-2.4-0.9-3.6-0.6-1.1-1.3-2.1-2.2-3-0.9-0.8-1.9-1.5-3.1-2-1.2-0.4-2.4-0.7-3.6-0.7h-40.6l-32.4-90.4h-56.8c-1.9 0-3.7 0.4-5.3 1.2-1.6 0.9-3 2-4.1 3.5-1.1 1.4-1.8 3.1-2.1 4.9-0.3 1.8-0.2 3.7 0.3 5.4z"/><path class="a" d="m218.6 214.7c0 0.2-10.9 0.3-24.2 0.3-13.3 0-24.1-0.1-24.1-0.3 0-0.2 10.8-0.4 24.1-0.4 13.3 0 24.2 0.2 24.2 0.4z"/><path class="a" d="m136.7 119.8c0.2-0.1 7.4 21 16.1 47.1 8.7 26.1 15.6 47.4 15.4 47.4-0.2 0.1-7.4-21-16.1-47.1-8.7-26.2-15.6-47.4-15.4-47.4z"/><path class="b" d="m214.1 305.1l-6.4-0.2v-78.2h6.4v78.4z"/><path class="b" d="m180.9 304.7h60.1l-27.3-9.4h-6.4l-26.4 9.4z"/><path class="c" d="m166.6 94.8l10 49.7-1.8 37.2 66.9-11.1-2.6-32.6-0.1-27 16.4 31.8 12.8-24.7-23.4-42.3q-1.6-1.7-3.4-3.2-1.7-1.4-3.7-2.7-1.9-1.2-4-2.3-2-1-4.2-1.7-1.2-0.5-2.3-0.8-1.2-0.3-2.4-0.5-1.2-0.3-2.4-0.4-1.3-0.1-2.5-0.2-2.8 0.9-5.7 1.4-2.9 0.4-5.9 0.4-2.9 0-5.8-0.4-2.9-0.5-5.7-1.4-1.5 0.2-3.9 0.5h-0.3c-3.4 0.4-6.8 1.4-9.8 3-3.1 1.6-5.8 3.7-8.2 6.2-2.3 2.5-4.2 5.4-5.5 8.6-1.4 3.1-2.2 6.5-2.3 10z"/><path class="c" d="m191.9 66.5c0 0-27.5 0.2-30.9 29.2l-0.5 21.3 23.7-0.2z"/><path class="d" d="m257.5 103.8c0 0.2-21.6 0.4-48.3 0.4-26.6 0-48.2-0.2-48.2-0.4 0-0.2 21.6-0.4 48.3-0.4 26.7 0 48.2 0.2 48.2 0.4z"/><path class="d" d="m257.5 108.4c0 0.2-21.6 0.4-48.3 0.4-26.6 0-48.2-0.2-48.2-0.4 0-0.2 21.6-0.4 48.2-0.4 26.7 0 48.3 0.2 48.3 0.4z"/><path class="d" d="m256 100c0 0.2-21.3 0.4-47.5 0.4-26.3 0-47.5-0.2-47.5-0.4 0-0.2 21.3-0.4 47.5-0.4 26.3 0 47.5 0.2 47.5 0.4z"/><path class="a" d="m237.7 144.8c-0.2 0-0.2-11.8 0.2-26.3 0.3-14.5 0.7-26.3 0.9-26.3 0.2 0 0.1 11.8-0.2 26.3-0.3 14.5-0.7 26.3-0.9 26.3z"/><path class="e" d="m228.3 125.7c0 0 13 0.9 15.3 4.4 2.3 3.4 5.9 13.2 4.6 13.3q-0.3 0-0.7-0.1-0.3 0-0.6-0.1-0.3-0.1-0.5-0.2-0.3-0.2-0.6-0.4l-3.5-6.3c0 0 0.5 6.1-1.6 6.2-2.1 0.1-12.7 2.3-12.7 2.3z"/><path class="c" d="m160.6 111.3l-0.1 33.5c0.1 1.9 0.6 3.7 1.5 5.3 0.8 1.6 2 3 3.5 4.2 1.5 1.1 3.2 1.9 5 2.3 1.8 0.4 3.6 0.4 5.4 0l52.4-10.8-0.1-21.5-45.2 8.7-0.6-22.8z"/><path class="a" d="m190.5 153.9q0 0 0.1-0.1 0.1 0 0.2 0 0.1 0 0.2-0.1 0.1 0 0.1 0l2-0.5 7.7-1.6 27.4-5.6-0.3 0.3c0-6.7 0-14.2 0-22.1l0.4 0.4-9.2 1.8-36 6.8-0.4 0.1v-0.3c0.4-10 0.6-18.3 0.8-24.2q0.2-4.3 0.3-6.7c0-0.7 0.1-1.3 0.1-1.8q0-0.1 0-0.1 0-0.1 0-0.2 0.1-0.1 0.1-0.1 0-0.1 0-0.2 0 0.1 0 0.2 0 0 0 0.1 0 0.1 0 0.2 0 0 0 0.1c0 0.5 0 1 0 1.8 0 1.6-0.1 3.9-0.1 6.7-0.1 5.9-0.3 14.2-0.6 24.2l-0.3-0.3 36-7 9.2-1.8 0.4-0.1v0.5c0 7.9 0 15.3 0 22.1v0.2l-0.3 0.1-27.3 5.3-7.7 1.4-2.1 0.4q-0.1 0-0.2 0-0.1 0.1-0.2 0.1-0.1 0-0.2 0 0 0-0.1 0z"/><path class="a" d="m220.5 66.5c0 0 0.1 0.1 0.2 0.5q0.1 0.1 0.2 0.3 0 0.2 0.1 0.4 0 0.2 0.1 0.4 0 0.2 0 0.3 0.2 0.7 0.2 1.5 0.1 0.7 0 1.4 0 0.7-0.1 1.4-0.1 0.7-0.3 1.4-0.3 1-0.8 2-0.4 0.9-1 1.8-0.6 0.9-1.3 1.7-0.6 0.8-1.5 1.5-0.9 0.9-2 1.5-1.2 0.7-2.4 1.2-1.2 0.4-2.5 0.7-1.3 0.2-2.6 0.2-1.3 0-2.6-0.2-1.3-0.3-2.5-0.8-1.2-0.5-2.3-1.2-1.1-0.7-2-1.6-0.7-0.8-1.3-1.7-0.6-0.9-1.1-1.9-0.4-0.9-0.7-1.9-0.3-1.1-0.4-2.1-0.1-0.7-0.1-1.5 0-0.7 0.1-1.4 0-0.7 0.2-1.4 0.2-0.7 0.4-1.3 0.1-0.2 0.2-0.4 0-0.2 0.1-0.3 0.1-0.2 0.2-0.4 0.1-0.2 0.2-0.3 0.3-0.5 0.3-0.5c0 0-0.3 0.7-0.7 2q-0.2 0.6-0.3 1.3-0.2 0.7-0.2 1.4-0.1 0.6 0 1.3 0 0.7 0.1 1.4 0.1 1 0.4 2 0.3 0.9 0.8 1.9 0.4 0.9 1 1.7 0.6 0.8 1.3 1.6 0.9 0.8 1.9 1.5 1 0.7 2.2 1.2 1.1 0.4 2.4 0.6 1.2 0.3 2.4 0.2 1.3 0 2.5-0.2 1.2-0.2 2.4-0.6 1.1-0.4 2.2-1.1 1.1-0.6 2-1.4 0.8-0.7 1.5-1.4 0.6-0.8 1.2-1.6 0.6-0.9 1-1.8 0.5-0.9 0.8-1.9 0.2-0.6 0.3-1.3 0.2-0.7 0.2-1.4 0.1-0.7 0.1-1.4-0.1-0.6-0.2-1.3c-0.1-1.3-0.4-2-0.3-2z"/><path class="d" d="m223 147.6q0-0.5 0-0.9 0-0.4 0-0.8 0-0.4 0-0.8 0-0.4 0-0.9c0.1-2 0.2-4.8 0.2-7.9 0.1-3.1 0-5.9-0.1-7.9q0-0.5 0-0.9 0-0.4 0-0.8 0-0.4 0-0.8 0-0.4 0-0.9 0.2 0.5 0.2 0.9 0.1 0.4 0.2 0.8 0.1 0.4 0.1 0.8 0 0.4 0 0.8c0.2 2 0.4 4.9 0.4 8-0.1 3.2-0.2 6-0.5 8q0 0.4 0 0.8 0 0.5-0.1 0.9-0.1 0.4-0.2 0.8 0 0.4-0.2 0.8z"/><path class="d" d="m220.3 148.1q0-0.4 0-0.8-0.1-0.4-0.1-0.8 0-0.4 0-0.9 0-0.4 0-0.8c0-2.3 0.1-5 0.1-7.9v-7.9q0-0.4 0-0.8 0-0.4 0-0.8 0-0.5 0.1-0.9 0-0.4 0-0.8 0.2 0.4 0.2 0.8 0.1 0.4 0.2 0.8 0 0.4 0 0.9 0.1 0.4 0.1 0.8c0.1 2 0.2 4.8 0.2 7.9 0 3.1-0.2 5.9-0.3 7.9q0 0.4-0.1 0.9 0 0.4 0 0.8-0.1 0.4-0.2 0.8-0.1 0.4-0.2 0.8z"/><path class="c" d="m272.8 281.2l9.9 27.3 14.1 19.3q0.3 0.5 0.5 1.1 0.1 0.6 0 1.3-0.1 0.6-0.5 1.1-0.3 0.5-0.8 0.8-0.3 0.2-0.7 0.3-0.3 0.1-0.7 0.1-0.3 0.1-0.7 0-0.3 0-0.7-0.2c-5.6-2.3-26.4-11.1-27-13.1-0.8-2.4-14.2-31.7-14.2-31.7z"/><g style="opacity:.6"><path class="f" d="m296 332.1l-30.5-14.7 0.4 1.1q0.2 0.4 0.4 0.7 0.2 0.4 0.4 0.7 0.3 0.3 0.6 0.5 0.3 0.2 0.6 0.4c2.5 1.4 9.5 5 25.3 11.6q0.3 0.1 0.7 0.2 0.3 0 0.7 0 0.4 0 0.7-0.2 0.4-0.1 0.7-0.3z"/></g><g style="opacity:.6"><path class="f" d="m267.6 306.5q0.3 0.1 0.6 0.3 0.3 0.2 0.4 0.4 0.2 0.3 0.3 0.6 0.1 0.4 0 0.7-0.1 0.3-0.2 0.6-0.2 0.3-0.5 0.5-0.3 0.1-0.6 0.2-0.4 0.1-0.7 0-0.3-0.1-0.6-0.3-0.3-0.2-0.5-0.5-0.2-0.3-0.2-0.6-0.1-0.4-0.1-0.7 0.2-0.4 0.4-0.6 0.2-0.3 0.5-0.4 0.3-0.2 0.7-0.2 0.3-0.1 0.6 0"/></g><path class="a" d="m285.2 322.7q0.1-0.4 0.3-0.8 0.1-0.4 0.3-0.8 0.2-0.4 0.4-0.7 0.3-0.4 0.5-0.7c1.3-1.4 2.9-1.6 2.9-1.8 0-0.2-0.4-0.2-1.1 0q-0.6 0.2-1.2 0.5-0.6 0.4-1 0.9-0.5 0.5-0.8 1.1-0.3 0.6-0.4 1.2c-0.1 0.7 0 1.1 0.1 1.1z"/><path class="a" d="m288.5 325.6c0.2 0 0.7-1.2 2-2.1q0.3-0.2 0.6-0.4 0.3-0.2 0.6-0.4 0.3-0.1 0.6-0.3 0.3-0.1 0.7-0.3c0-0.2-1.5-0.2-2.9 0.9-1.4 1.1-1.8 2.5-1.6 2.6z"/><path class="a" d="m279.8 319.4c0.2 0.1 1-1.7 2.8-3.4 1.7-1.6 3.7-2.3 3.6-2.5 0-0.2-2.2 0.3-4.1 2-1.9 1.8-2.5 3.9-2.3 3.9z"/><path class="a" d="m276.1 311.4c0.1 0.1 1.4-1.1 3.3-1.9 1.9-0.8 3.6-1 3.6-1.1 0-0.2-1.8-0.4-3.9 0.5-2 0.9-3.1 2.4-3 2.5z"/><path class="a" d="m273 303.5c0.1 0.1 1.3-1.4 3.4-2.1 2.1-0.7 3.9-0.3 3.9-0.5 0.1-0.2-0.4-0.3-1.2-0.4q-0.7-0.1-1.5 0-0.7 0.1-1.4 0.3-0.7 0.3-1.4 0.7-0.6 0.4-1.2 0.9c-0.5 0.6-0.7 1-0.6 1.1z"/><path class="a" d="m275.7 299.9q0-0.1 0-0.2-0.1-0.2-0.1-0.3-0.1-0.1-0.1-0.2-0.1-0.2-0.1-0.3-0.2-0.3-0.4-0.6-0.2-0.4-0.4-0.7-0.3-0.2-0.5-0.5-0.3-0.3-0.6-0.5-0.2-0.2-0.4-0.4-0.2-0.2-0.5-0.3-0.2-0.1-0.5-0.2-0.3-0.1-0.5-0.1-0.2 0-0.4 0-0.2 0-0.3 0.1-0.2 0.1-0.3 0.3-0.1 0.1-0.2 0.3-0.1 0.2-0.1 0.3 0 0.2 0 0.4 0 0.2 0 0.3 0 0.2 0.1 0.4 0.3 0.7 0.8 1.2 0.6 0.5 1.2 0.8 0.7 0.4 1.4 0.4 0.8 0.1 1.5-0.1 0.7-0.2 1.3-0.6 0.6-0.4 1.1-0.9 0.5-0.6 0.8-1.2 0.3-0.7 0.3-1.4 0.1-0.2 0-0.4 0-0.2 0-0.3-0.1-0.2-0.2-0.4-0.1-0.1-0.2-0.3-0.1-0.1-0.3-0.1-0.2-0.1-0.4-0.1-0.1-0.1-0.3 0-0.2 0-0.4 0.1-0.2 0.2-0.4 0.3-0.2 0.2-0.4 0.4-0.2 0.2-0.3 0.5-0.2 0.2-0.3 0.4-0.2 0.4-0.3 0.7-0.2 0.3-0.3 0.7-0.1 0.4-0.2 0.7-0.1 0.4-0.2 0.7 0 0.2 0 0.3 0 0.2 0 0.3 0 0.1 0 0.3 0 0.1 0 0.2 0.1-0.4 0.3-0.9 0.1-0.5 0.3-0.9 0.2-0.5 0.4-1 0.2-0.4 0.5-0.8 0.1-0.2 0.2-0.4 0.2-0.2 0.3-0.4 0.2-0.2 0.4-0.3 0.2-0.2 0.3-0.3 0.1-0.1 0.2-0.1 0.1 0 0.2 0 0.1 0 0.2 0 0.1 0.1 0.2 0.2 0.1 0.1 0.1 0.2 0.1 0.1 0.1 0.2 0 0.1 0.1 0.2 0 0.1-0.1 0.2-0.1 0.7-0.3 1.2-0.3 0.6-0.7 1.1-0.4 0.4-0.9 0.8-0.6 0.3-1.2 0.5-0.6 0.1-1.2 0.1-0.6-0.1-1.2-0.3-0.5-0.3-1-0.7-0.4-0.4-0.7-1-0.1-0.1-0.1-0.2 0-0.2 0-0.3-0.1-0.1 0-0.2 0-0.2 0-0.3 0-0.1 0.1-0.2 0.1-0.1 0.2-0.1 0.1-0.1 0.1-0.1 0.1 0 0.2 0 0.3 0 0.5 0.1 0.2 0.1 0.4 0.2 0.2 0.1 0.4 0.2 0.2 0.1 0.4 0.3 0.4 0.3 0.7 0.7 0.3 0.3 0.6 0.7 0.4 0.4 0.6 0.8 0.3 0.4 0.5 0.8z"/><path class="c" d="m314.6 274.1l-0.8 22.2c0 0 22.2 8.3 22.5 12.4l-43-0.1-0.2-34.6z"/><g style="opacity:.6"><path class="f" d="m300.5 294.4q-0.3 0.1-0.6 0.3-0.2 0.2-0.4 0.4-0.2 0.3-0.2 0.6-0.1 0.4 0 0.7 0 0.3 0.2 0.6 0.2 0.2 0.5 0.4 0.3 0.2 0.6 0.2 0.3 0.1 0.7 0 0.3-0.1 0.6-0.3 0.2-0.2 0.4-0.5 0.2-0.3 0.2-0.6 0.1-0.4 0-0.7-0.1-0.3-0.3-0.6-0.2-0.2-0.6-0.4-0.3-0.1-0.6-0.2-0.3 0-0.7 0.1"/></g><g style="opacity:.6"><path class="f" d="m293.2 308.6v-3.5l41.4 1.4c0 0 1.9 0.9 1.7 2.2z"/></g><path class="a" d="m314.5 296.1c0 0.2-1.1 0.3-2.1 1-1.1 0.6-1.6 1.5-1.8 1.4-0.2-0.1 0.1-1.3 1.4-2.1 1.3-0.8 2.5-0.5 2.5-0.3z"/><path class="a" d="m319 297.9c0 0.2-0.9 0.6-1.6 1.5-0.7 0.9-0.9 1.8-1.1 1.8-0.2 0-0.4-1.2 0.6-2.3 0.9-1.1 2.1-1.2 2.1-1z"/><path class="a" d="m321.5 303.3c-0.2 0-0.4-1 0.1-2.1 0.6-1.2 1.5-1.6 1.6-1.4 0.1 0.1-0.5 0.8-1 1.7-0.5 1-0.5 1.8-0.7 1.8z"/><path class="a" d="m314.1 291c-0.1 0.2-1-0.1-2.2 0-1.2 0.1-2.1 0.4-2.3 0.3-0.1-0.2 0.8-1 2.2-1 1.4-0.1 2.4 0.5 2.3 0.7z"/><g style="opacity:.3"><path  d="m314.5 278.5l-0.2 3.9-21.1-0.2-0.1-3.6 21.4-0.1z"/></g><path class="a" d="m314.2 286.5q-0.3 0.1-0.5 0.1-0.3 0.1-0.6 0.1-0.2 0-0.5-0.1-0.3 0-0.6-0.1-0.2 0-0.5-0.1-0.3-0.1-0.6-0.2-0.3-0.1-0.6-0.2-0.2-0.1-0.5-0.2-0.2-0.1-0.3-0.1-0.2-0.1-0.3-0.2-0.2-0.1-0.3-0.2-0.2 0-0.3-0.1-0.1-0.1-0.2-0.2-0.1 0-0.2-0.1-0.1 0-0.1-0.1-0.1-0.1-0.2-0.2-0.1-0.1-0.2-0.2 0-0.1 0-0.3 0-0.1 0-0.3 0-0.1 0.1-0.3 0.1-0.1 0.2-0.2 0.1-0.1 0.2-0.1 0.1-0.1 0.3-0.1 0.1 0 0.2-0.1 0.1 0 0.2 0.1 0.1 0 0.2 0 0.2 0 0.3 0 0.1 0 0.1 0.1 0.2 0 0.4 0.1 0.2 0 0.3 0.1 0.2 0 0.4 0.1 0.1 0.1 0.3 0.1 0.3 0.2 0.5 0.3 0.3 0.1 0.5 0.3 0.3 0.2 0.5 0.4 0.3 0.1 0.5 0.3c1 1 1.3 1.7 1.3 1.8-0.1 0-0.6-0.6-1.6-1.4q-0.3-0.1-0.5-0.3-0.2-0.1-0.5-0.3-0.2-0.1-0.5-0.2-0.2-0.1-0.5-0.3-0.1 0-0.3-0.1-0.1 0-0.3-0.1-0.1 0-0.3-0.1-0.1 0-0.3 0c-0.5-0.2-0.8-0.2-1 0-0.1 0.2 0 0.1 0 0.3q0.1 0 0.1 0.1 0.1 0 0.1 0.1 0.1 0 0.2 0.1 0 0 0.1 0.1 0.1 0 0.3 0.1 0.1 0.1 0.3 0.2 0.1 0.1 0.2 0.2 0.2 0 0.3 0.1 0.3 0.1 0.5 0.2 0.3 0.2 0.6 0.3 0.2 0.1 0.5 0.1 0.2 0.1 0.5 0.2 0.3 0.1 0.5 0.1 0.3 0.1 0.6 0.1 0.2 0.1 0.5 0.2 0.3 0 0.5 0.1z"/><path class="a" d="m313.9 286.8q-0.1-0.2-0.2-0.5-0.1-0.2-0.2-0.5-0.1-0.2-0.1-0.5 0-0.3 0-0.6 0-0.3 0-0.6 0-0.3 0-0.6 0.1-0.3 0.1-0.6 0.1-0.2 0.2-0.5 0-0.2 0.1-0.4 0-0.1 0.1-0.3 0.1-0.2 0.2-0.3 0-0.2 0.1-0.3 0.1-0.2 0.3-0.4 0.1-0.2 0.3-0.3 0.2-0.2 0.4-0.3 0.2-0.1 0.4-0.1 0.1 0 0.3 0 0.1 0.1 0.2 0.2 0.2 0 0.3 0.2 0 0.1 0.1 0.2 0 0.1 0.1 0.2 0 0.1 0 0.2 0.1 0.1 0.1 0.2 0 0.1 0 0.2 0 0.2 0.1 0.4 0 0.1 0 0.3 0 0.2 0 0.4-0.1 0.2-0.1 0.3 0 0.4-0.1 0.6-0.1 0.3-0.2 0.6-0.1 0.3-0.3 0.6-0.1 0.2-0.3 0.5c-0.9 1.1-1.7 1.3-1.8 1.3 0-0.1 0.7-0.6 1.4-1.6q0.1-0.2 0.2-0.5 0.1-0.2 0.2-0.5 0.1-0.2 0.2-0.5 0-0.3 0-0.5 0.1-0.2 0.1-0.3 0-0.2 0-0.3 0-0.2 0-0.4 0-0.1-0.1-0.3c0-0.4-0.2-0.8-0.4-0.8-0.1 0.1-0.5 0.4-0.7 0.8q-0.1 0.1-0.2 0.2 0 0.2-0.1 0.3-0.1 0.2-0.1 0.3-0.1 0.2-0.2 0.3 0 0.3-0.1 0.5-0.1 0.3-0.1 0.6-0.1 0.2-0.1 0.5-0.1 0.3-0.1 0.6c-0.1 1.2 0.1 2 0 2z"/><path class="a" d="m293.2 167.8c-25.4 2.7-59.2 6.1-59.2 6.1l4.6 41.4c0 0 49.6-13.1 49.2-12-0.3 1.1 2.3 88.1 2.3 88.1h29.8l0.6-98.6c0.1-3.4-0.6-6.9-2-10.1-1.4-3.2-3.5-6.1-6-8.5-2.6-2.4-5.7-4.1-9-5.2-3.3-1.1-6.8-1.5-10.3-1.2z"/><path class="a" d="m173.2 184.5v12.9c0 8.7 10 18 18.7 18h6.7c5.4 0 13.7-3.9 18-7l2.6-1.9 31.1 96.2c0 0 35.5-6.4 35.5-7.5 0-1.1-24-78.8-35.2-114.9-4.5-14.7-20.3-23.2-34.8-18.2q-0.8 0.2-1.5 0.5c-16 6.4-41.1 21.9-41.1 21.9z"/><path class="b" d="m285.8 295.2q0-0.1-0.1-0.1 0 0 0-0.1 0 0 0-0.1-0.1 0-0.1-0.1-0.1-0.4-0.4-1-0.5-1.3-1.4-4c-1.2-3.4-2.8-8.5-4.8-14.8-4-12.5-9.3-29.9-15-49.1-2.9-9.6-5.7-18.7-8.2-27.1q-1.8-6.2-3.5-11.8-0.8-2.8-1.6-5.3-0.1-0.7-0.3-1.3-0.2-0.6-0.4-1.2-0.2-0.6-0.4-1.2-0.2-0.6-0.5-1.2-0.4-1-0.9-2-0.6-0.9-1.2-1.8-0.6-0.9-1.3-1.8-0.8-0.8-1.6-1.5-0.6-0.6-1.2-1.1-0.7-0.6-1.3-1.1-0.7-0.5-1.4-1-0.6-0.5-1.3-0.9c-1.6-1-2.8-1.8-3.6-2.3l-0.9-0.6q-0.1 0-0.1 0-0.1 0-0.1-0.1 0 0-0.1 0 0-0.1 0-0.1 0 0 0 0 0.1 0.1 0.1 0.1 0.1 0 0.1 0 0.1 0 0.1 0.1l1 0.5c0.8 0.4 2.1 1.2 3.6 2.1q0.8 0.5 1.4 1 0.7 0.4 1.4 0.9 0.7 0.5 1.3 1.1 0.7 0.5 1.3 1 0.9 0.8 1.6 1.6 0.8 0.8 1.4 1.8 0.7 0.9 1.2 1.8 0.6 1 1 2 0.3 0.7 0.5 1.3 0.2 0.6 0.4 1.2 0.3 0.6 0.5 1.2 0.1 0.6 0.3 1.3 0.8 2.5 1.7 5.3l3.5 11.8c2.5 8.3 5.3 17.5 8.2 27.1 5.8 19.2 11 36.5 14.8 49.2l4.6 14.8 1.3 4q0.2 0.7 0.3 1.1c0.1 0.3 0.1 0.4 0.1 0.4z"/><path class="b" d="m293.3 190.9c0.2 0.1-1.5 2.6-2.9 6.1-1.5 3.4-2.1 6.4-2.3 6.4-0.2-0.1 0.1-3.2 1.6-6.7 1.4-3.5 3.4-5.9 3.6-5.8z"/><path class="b" d="m299 194.9c0.1 0.2-2.5 1.3-5.2 3.4-2.6 2.1-4.3 4.3-4.5 4.2-0.2-0.1 1.3-2.6 4.1-4.8 2.8-2.1 5.5-3 5.6-2.8z"/><path class="b" d="m250.6 302.7c-0.2 0-8.6-25.7-18.8-57.5-10.1-31.8-18.2-57.7-18-57.8 0.3 0 8.6 25.7 18.8 57.6 10.1 31.8 18.2 57.6 18 57.7z"/><path class="b" d="m212.5 152.6l101.6 1 19-53.6-74 0.5-17.1 48.2-29.5 0.4v3.5z"/><path class="f" d="m289.5 131.4c-1.6-0.2-3-1.4-3.4-3-0.4-1.7 0.2-3.4 1.5-4.4 1.4-1 3.2-1.1 4.6-0.2 1.4 0.8 2.2 2.4 2 4.1q-0.1 0.8-0.5 1.5-0.5 0.7-1.1 1.2-0.7 0.5-1.5 0.7-0.7 0.2-1.6 0.1z"/><path class="a" d="m204.2 7.6c1-3.6 3.6-5.4 7.1-6.5q1.3-0.5 2.7-0.6 1.4-0.1 2.8 0.1 1.3 0.2 2.6 0.8 1.3 0.5 2.4 1.4c2 1.5 3.5 3.6 5.8 4.4 3.9 1.4 8.4-1.5 12 0.2 1.2 0.5 2.1 1.4 2.6 2.5 0.5 1.1 0.7 2.4 0.4 3.6-0.3 1.1-1 2.2-2 2.9-1 0.7-2.2 1.1-3.4 1 2.5 0.9 3.2 4.5 1.8 6.7-1.5 2.3-4.5 3.1-7.1 2.6q-1-0.2-1.9-0.6-0.9-0.4-1.8-0.8-0.9-0.5-1.7-1.1-0.8-0.6-1.5-1.3c-2-1.8-3.8-3.8-5.9-5.5q-0.7-0.6-1.6-1.1-0.9-0.5-1.8-0.9-1-0.3-1.9-0.5-1-0.2-2-0.2c-3.7 0.2-6.7 2.9-8.4 6.2-1.6 3.2-2 6.9-2.1 10.5-0.2 3.6-0.3 7.3-1.4 10.7-0.1 0.4-0.3 0.9-0.7 1-0.6 0.2-1.1-0.4-1.4-1q-1.2-2.2-2.2-4.6-1-2.4-1.8-4.9-0.7-2.5-1.2-5-0.5-2.6-0.8-5.2c-0.4-4-0.3-7.8 1.9-11.1 2.2-3.4 7.7-5.9 10.4-3.7"/><path class="e" d="m197.2 24.3l-1.9 40.5c-0.3 6.8 0.7 17 11.6 17 9.4-0.7 12.2-9.5 12.5-16 0.2-3 0.3-5.6 0.3-5.9 0 0 10.4-0.5 11.6-10.6 0.5-4.9 1-15.2 1.2-24.4 0-2.4-0.4-4.7-1.2-7-0.8-2.2-2-4.2-3.5-6-1.6-1.8-3.5-3.3-5.6-4.4-2.1-1.1-4.4-1.8-6.7-2l-1-0.1c-10.7-0.5-17.1 8.2-17.3 18.9z"/><path class="g" d="m219.7 59.8q-1.7-0.2-3.4-0.6-1.7-0.4-3.4-1-1.6-0.7-3.1-1.6-1.5-0.9-2.9-2c-0.9-0.7 2.3 7.7 12.6 7.8z"/><path class="a" d="m228.8 31.4q0 0.3-0.2 0.6-0.1 0.2-0.3 0.4-0.2 0.2-0.5 0.3-0.3 0.1-0.6 0-0.3 0-0.5-0.1-0.3-0.1-0.5-0.3-0.2-0.2-0.3-0.5 0-0.2 0-0.5 0-0.3 0.1-0.6 0.2-0.2 0.4-0.4 0.2-0.2 0.5-0.3 0.2-0.1 0.5-0.1 0.3 0.1 0.6 0.2 0.2 0.1 0.4 0.3 0.2 0.2 0.3 0.5 0.1 0.2 0.1 0.5z"/><path class="a" d="m229.7 29.7c-0.2 0.1-1.2-0.8-2.7-0.9-1.6-0.2-2.8 0.5-3 0.2-0.1-0.2 0.2-0.4 0.7-0.7q0.3-0.1 0.6-0.2 0.3-0.1 0.6-0.2 0.3-0.1 0.6-0.1 0.3 0 0.6 0 0.3 0.1 0.6 0.2 0.3 0 0.6 0.2 0.2 0.1 0.5 0.3 0.3 0.1 0.5 0.3c0.4 0.4 0.5 0.8 0.4 0.9z"/><path class="a" d="m213.4 30.3q0 0.3-0.2 0.6-0.1 0.2-0.3 0.4-0.2 0.2-0.5 0.3-0.3 0.1-0.6 0-0.3 0-0.5-0.1-0.3-0.1-0.5-0.3-0.1-0.2-0.2-0.5-0.1-0.2-0.1-0.5 0-0.3 0.1-0.6 0.2-0.2 0.4-0.4 0.2-0.2 0.5-0.3 0.2-0.1 0.5-0.1 0.3 0.1 0.6 0.2 0.2 0.1 0.4 0.3 0.2 0.2 0.3 0.5 0.1 0.2 0.1 0.5z"/><path class="a" d="m214.3 28.3c-0.2 0.2-1.2-0.7-2.7-0.9-1.6-0.2-2.8 0.5-3 0.3-0.1-0.2 0.2-0.4 0.7-0.7q0.3-0.2 0.6-0.3 0.3-0.1 0.6-0.1 0.3-0.1 0.6-0.1 0.3 0 0.6 0 0.3 0 0.6 0.1 0.3 0.1 0.6 0.2 0.2 0.2 0.5 0.3 0.3 0.2 0.5 0.4c0.4 0.4 0.5 0.8 0.4 0.8z"/><path class="a" d="m218.8 40.5q0.3 0 0.6-0.1 0.4 0 0.7 0 0.3-0.1 0.6-0.1 0.4 0 0.7 0c0.4 0 0.8 0 0.9-0.3q0-0.1 0-0.3 0-0.1 0-0.3 0-0.1-0.1-0.3 0-0.1-0.1-0.3-0.4-1.5-0.8-3.1c-1.2-4.5-2-8.2-1.8-8.3 0.1 0 1.2 3.6 2.4 8.1q0.5 1.7 0.8 3.2 0.1 0.2 0.1 0.4 0.1 0.2 0.1 0.4 0 0.2-0.1 0.4 0 0.2-0.1 0.4 0 0.1-0.1 0.2-0.1 0-0.2 0.1-0.1 0.1-0.2 0.1-0.1 0.1-0.2 0.1-0.1 0-0.2 0 0 0-0.1 0-0.1 0-0.2 0-0.1 0-0.2 0-0.3 0-0.6 0-0.3 0-0.6-0.1-0.4 0-0.7 0-0.3-0.1-0.6-0.2z"/><path class="a" d="m214.1 41.1c0.2 0 0.1 1.7 1.4 3.1 1.3 1.4 3.1 1.4 3.1 1.6 0 0.2-0.4 0.3-1.2 0.2q-0.4 0-0.7-0.1-0.4-0.1-0.7-0.3-0.4-0.1-0.7-0.3-0.3-0.3-0.5-0.5-0.3-0.3-0.5-0.6-0.2-0.3-0.3-0.6-0.1-0.3-0.2-0.7-0.1-0.3-0.1-0.7c0-0.7 0.3-1.1 0.4-1.1z"/><path class="a" d="m215.4 22.2c-0.2 0.5-1.7 0-3.6 0.1-1.9 0.1-3.4 0.4-3.6 0-0.1-0.2 0.2-0.5 0.9-0.9q0.6-0.3 1.3-0.5 0.7-0.1 1.4-0.1 0.7 0 1.4 0.1 0.7 0.2 1.3 0.5c0.7 0.3 1 0.7 0.9 0.8z"/><path class="a" d="m229.7 25.1c-0.4 0.3-1.4-0.2-2.7-0.3-1.3-0.2-2.4 0-2.6-0.4-0.1-0.2 0.1-0.6 0.6-0.9q0.3-0.1 0.5-0.2 0.3-0.1 0.6-0.1 0.3 0 0.6 0 0.2 0 0.5 0 0.3 0 0.6 0.1 0.2 0.1 0.5 0.2 0.3 0.1 0.5 0.3 0.2 0.1 0.4 0.3c0.5 0.4 0.6 0.8 0.5 1z"/><path class="e" d="m197.2 31.9c-0.1-0.1-6.7-2.8-7.3 4.2-0.5 7 6.6 6 6.7 5.8 0-0.2 0.6-10 0.6-10z"/><path class="g" d="m194.6 39.1c0 0-0.1 0.1-0.3 0.2q-0.1 0-0.2 0.1-0.2 0-0.3 0-0.1 0-0.2-0.1-0.1 0-0.2 0-0.3-0.3-0.6-0.6-0.2-0.3-0.4-0.7-0.2-0.4-0.2-0.8-0.1-0.4 0-0.8 0-0.2 0-0.4 0.1-0.2 0.1-0.4 0.1-0.2 0.2-0.5 0-0.2 0.1-0.4 0.1-0.1 0.2-0.3 0.1-0.1 0.2-0.2 0.2-0.1 0.3-0.2 0.2-0.1 0.3-0.1 0.2 0 0.3 0 0.1 0 0.2 0 0.1 0.1 0.1 0.2 0.1 0.1 0.1 0.2c0.1 0.2 0 0.3 0.1 0.3 0.1 0 0.2-0.1 0.1-0.4q0-0.1 0-0.1 0-0.1-0.1-0.1 0-0.1 0-0.1-0.1-0.1-0.1-0.1-0.1-0.1-0.2-0.1 0-0.1-0.1-0.1-0.1-0.1-0.2-0.1-0.1 0-0.2 0-0.2 0.1-0.4 0.1-0.2 0.1-0.4 0.3-0.2 0.1-0.3 0.3-0.1 0.1-0.2 0.3-0.2 0.2-0.3 0.5-0.1 0.2-0.1 0.5-0.1 0.2-0.1 0.4-0.1 0.3-0.1 0.5c-0.1 1.4 0.6 2.8 1.6 3.2q0.1 0 0.2 0.1 0.2 0 0.3 0 0.2-0.1 0.3-0.1 0.2 0 0.3-0.1c0.2-0.2 0.2-0.3 0.2-0.4z"/><path class="a" d="m234.8 23q-1.7 0.3-3.4 0.1-1.8-0.2-3.4-0.7-1.7-0.6-3.2-1.5-1.5-1-2.7-2.2c-2.2-2.4-3.8-5.6-6.8-6.9q-0.8-0.3-1.6-0.4-0.8-0.2-1.7-0.1-0.8 0-1.6 0.2-0.8 0.2-1.5 0.5-0.8 0.3-1.5 0.8-0.7 0.4-1.4 0.9-0.6 0.5-1.2 1-0.7 0.6-1.2 1.2c1.4 5.4-0.5 11-2.4 16.2q-0.1 0.2-0.2 0.5-0.1 0.2-0.2 0.4-0.1 0.2-0.3 0.3-0.1 0.2-0.3 0.3c-0.9 0.6-2.1 0-2.7-0.9q-0.4-0.5-0.6-1.1-0.3-0.5-0.5-1.1-0.2-0.6-0.3-1.3 0-0.6 0-1.2-0.2-1.4-0.1-2.9 0-1.4 0.1-2.8 0.2-1.4 0.5-2.8 0.3-1.4 0.7-2.8 0.5-1.3 1.1-2.6 0.6-1.3 1.4-2.5 0.9-1.2 1.8-2.2 1-1 2.1-1.9 1.5-1.1 3.1-1.9 1.6-0.7 3.3-1.2 1.8-0.4 3.5-0.5 1.8-0.1 3.6 0.1 1.8 0.2 3.5 0.8 1.7 0.5 3.3 1.2 1.6 0.8 3.1 1.8 1.5 1.1 2.7 2.3 0.7 0.5 1.2 1.1 0.6 0.7 1.1 1.3 0.4 0.7 0.8 1.5 0.4 0.7 0.7 1.5"/><path class="c" d="m39.3 238.1q1.4-0.7 2.8-1.1 1.5-0.4 2.9-0.6 1.5-0.1 3-0.1 1.5 0.1 3 0.3c2.1 0.4 4.3 1 5.8 2.6 1.4 1.6 1.7 4.4 0 5.8q-0.3 0.3-0.8 0.5-0.4 0.2-0.9 0.3-0.5 0.1-0.9 0.2-0.5 0-1-0.1c-3.1 0-6.5-0.5-9 1.3-1.4 1.1-2.4 2.9-4 3.4q-0.6 0.1-1.3 0.1-0.6-0.1-1.2-0.4-0.6-0.2-1.1-0.7-0.5-0.4-0.8-1-0.3-0.5-0.5-1.2-0.1-0.6-0.2-1.2-0.1-0.7 0-1.3 0-0.6 0.2-1.3 0.2-0.8 0.5-1.7 0.3-0.8 0.9-1.5 0.5-0.7 1.2-1.3 0.6-0.6 1.4-1z"/><path class="c" d="m31.1 222.3c2.2 3.1 6.5 2.1 8.4 0.2 2-1.9 2.8-4.7 3.6-7.3 1.7-6 3.4-12.3 2.2-18.4q-0.1-0.7-0.4-1.4-0.2-0.6-0.5-1.3-0.3-0.6-0.6-1.2-0.4-0.6-0.9-1.1-0.5-0.5-1-0.9-0.6-0.4-1.3-0.6-0.7-0.2-1.4-0.3-0.7 0-1.4 0.1c-2.1 0.6-3.4 2.7-4.4 4.7q-1 2.2-1.8 4.5-0.8 2.3-1.4 4.6-0.5 2.4-0.8 4.8-0.3 2.5-0.3 4.9c0 3 0.3 6.2 2 8.7z"/><path class="c" d="m25.2 226.8q0.8-1.1 1.4-2.4 0.5-1.3 0.7-2.6 0.3-1.4 0.2-2.8-0.1-1.3-0.6-2.7-0.4-1.3-1-2.5-0.7-1.2-1.4-2.4-0.8-1.1-1.8-2.1-0.9-1.1-2-2-1.2-1-2.4-2-1.3-0.9-2.7-1.8-1.4-0.8-2.9-1.5-1.4-0.6-3-1.2-0.5-0.2-1.2-0.4-0.6-0.2-1.2-0.3-0.6-0.1-1.3-0.1-0.6-0.1-1.3 0-0.6 0-1.2 0.2-0.6 0.2-1.1 0.5-0.6 0.4-1 0.8-0.5 0.5-0.8 1c-1.2 2.2-0.1 4.9 1.1 7.1q0.8 1.5 1.7 2.9 0.8 1.4 1.8 2.8 0.9 1.4 1.8 2.8 1 1.3 2 2.6c2.2 2.8 4.7 5.6 8 6.9 3.3 1.2 6.8 1.1 8.5-1.2"/><path class="a" d="m31 269.3q0-0.2 0.1-0.4 0-0.2 0-0.3 0.1-0.2 0.1-0.4 0-0.2 0-0.3c0.1-1 0.2-2.4 0.4-3.9q0.1-0.7 0.1-1.4 0.1-0.7 0.2-1.4 0.1-0.7 0.3-1.5 0.1-0.7 0.2-1.4 0.2-0.8 0.5-1.7 0.2-0.8 0.4-1.6 0.3-0.9 0.6-1.7 0.3-0.8 0.6-1.7 0.3-0.8 0.7-1.5 0.4-0.8 0.8-1.6 0.4-0.7 0.9-1.4 0.5-0.8 1-1.5 0.4-0.5 0.9-1 0.5-0.6 1.1-1 0.5-0.5 1.1-0.9 0.6-0.4 1.2-0.7 0.5-0.2 0.9-0.4 0.4-0.2 0.9-0.3 0.5-0.2 0.9-0.3 0.5-0.1 1-0.1 0.1 0 0.3-0.1 0.2 0 0.4 0 0.1 0 0.3-0.1 0.2 0 0.4 0-0.2-0.1-0.4-0.1-0.2 0-0.3 0-0.2 0-0.4 0-0.2 0-0.4 0.1-0.5 0-0.9 0.1-0.5 0.1-1 0.2-0.5 0.1-0.9 0.3-0.5 0.1-1 0.4-0.6 0.3-1.2 0.7-0.7 0.3-1.2 0.8-0.6 0.5-1.1 1-0.5 0.5-1 1.1-0.5 0.7-1 1.4-0.5 0.7-1 1.5-0.4 0.8-0.8 1.6-0.4 0.8-0.7 1.6-0.3 0.9-0.6 1.7-0.3 0.8-0.5 1.7-0.3 0.8-0.5 1.7-0.2 0.9-0.4 1.7-0.1 0.7-0.3 1.5-0.1 0.7-0.2 1.4-0.1 0.7-0.1 1.4-0.1 0.7-0.2 1.5c-0.1 1.6-0.1 3-0.2 3.8q0 0.2 0 0.4 0 0.2 0 0.4 0 0.1 0 0.3 0 0.2 0 0.4z"/><path class="a" d="m31.3 266.3q0-0.1 0-0.2 0 0 0-0.1 0-0.1 0-0.2 0-0.1 0-0.2 0-0.7 0-1.8c0-1.7 0-4 0.1-6.9 0.1-5.9 0.6-12.1 1.6-21 0.9-8.3 2.1-18 3.4-24.2q0.4-2.2 0.8-3.9c0.3-1.1 0.5-2.1 0.7-2.8 0.2-0.8 0.3-1.4 0.4-1.9q0.1 0 0.1-0.1 0-0.1 0-0.2 0-0.1 0.1-0.1 0-0.1 0-0.2-0.1 0.1-0.1 0.1 0 0.1-0.1 0.2 0 0.1 0 0.1 0 0.1-0.1 0.2-0.2 0.7-0.5 1.8c-0.2 0.7-0.5 1.7-0.8 2.9-0.3 1.1-0.6 2.4-0.9 3.8q-0.6 2.8-1.1 5.6-0.5 2.8-1 5.6-0.5 2.8-0.8 5.6-0.4 2.9-0.7 5.7c-1 8.9-1.4 16.9-1.4 22.8 0 2.9 0 5.2 0.1 6.9 0 0.7 0.1 1.4 0.1 1.8q0 0.1 0 0.2 0 0.1 0 0.2 0 0.1 0 0.1 0.1 0.1 0.1 0.2z"/><path class="a" d="m31.3 250.8q0-0.3 0-0.5 0-0.3 0-0.5 0-0.3 0-0.5 0-0.3 0-0.5 0-0.7-0.1-1.4 0-0.6-0.1-1.3-0.1-0.7-0.2-1.3-0.1-0.7-0.2-1.4-0.1-0.9-0.3-1.9-0.2-1-0.4-1.9-0.3-1-0.5-2-0.2-0.9-0.5-1.9-0.3-1.1-0.7-2.3-0.3-1.2-0.7-2.3-0.5-1.1-0.9-2.3-0.4-1.1-0.9-2.2-0.9-2.1-1.9-4-1-2-2.2-3.9-1.2-1.8-2.6-3.6-1.3-1.7-2.9-3.3-0.2-0.3-0.5-0.6-0.3-0.2-0.5-0.5-0.3-0.3-0.6-0.5-0.3-0.3-0.6-0.5c-0.4-0.3-0.7-0.6-1-0.8l-0.9-0.6q-0.2-0.1-0.4-0.3-0.2-0.1-0.4-0.3-0.2-0.1-0.4-0.2-0.2-0.1-0.4-0.3 0.7 0.6 1.4 1.2 0.7 0.6 1.4 1.2 0.6 0.6 1.3 1.2 0.7 0.6 1.3 1.3 1.5 1.6 2.8 3.3 1.3 1.8 2.5 3.6 1.1 1.9 2.1 3.8 1 2 1.9 4 0.4 1.1 0.9 2.2 0.4 1.2 0.8 2.3 0.4 1.1 0.8 2.3 0.4 1.1 0.7 2.3c0.9 2.8 1.4 5.4 1.9 7.6 0.4 2.2 0.6 4 0.7 5.3q0.1 0.3 0.1 0.5 0 0.3 0 0.5 0.1 0.2 0.1 0.5 0.1 0.2 0.1 0.5z"/><path class="a" d="m16.3 278.2l1.5 21.3h27.5l1.5-21.3h-30.5z"/><path class="a" d="m13.6 269.8h36.5v8.4h-36.5z"/><path class="b" d="m13.6 298.7v2.3h1.7 34.2v-2.3h-35.9z"/><path class="b" d="m17 305.1l-1.7-4.1h32.9l-2 4.1h-29.2z"/><path class="h" d="m46.3 285.2q0 0 0 0 0 0-0.1 0.1 0 0 0 0 0 0 0 0l-0.4 0.6-1.6 2-0.1 0.1-0.1-0.1-3.9-5.4h0.2l-3.8 5.5-0.2 0.2-0.1-0.2c-1.4-1.7-3-3.5-4.6-5.4h0.3q-0.1 0.1-0.3 0.3l-4.1 5.1-0.1 0.2-0.1-0.2-3.9-5.5h0.2l-4.7 5.5-0.1 0.1-0.1-0.1q-0.9-1.6-1.5-2.5l-0.3-0.7-0.2-0.2q0.1 0 0.2 0.2l0.4 0.6 1.6 2.5h-0.2l4.7-5.5 0.1-0.1 0.1 0.1 3.9 5.5h-0.2l4.1-5.2 0.2-0.3 0.2-0.2 0.1 0.2 4.6 5.5h-0.3l3.9-5.5 0.1-0.1 0.1 0.1 3.9 5.5h-0.2l1.7-2 0.4-0.5q0.2-0.3 0.2-0.2z"/><path class="b" d="m47.2 278c0 0.1-6.9 0.2-15.4 0.2-8.4 0-15.3-0.1-15.3-0.2 0-0.1 6.9-0.2 15.3-0.2 8.5 0 15.4 0.2 15.4 0.2z"/><path class="a" d="m48.6 301.3c0 0.1-7.5 0.1-16.7 0.1-9.2 0-16.7 0-16.7-0.1 0-0.1 7.5-0.2 16.7-0.2 9.2 0 16.7 0.1 16.7 0.2z"/><path class="a" d="m372.7 55.6l-19 79.6h5.3l18.7-79.6h-5z"/><path class="a" d="m365.4 108c-0.4 1.5 8.6 44.9 8.6 44.9h-4.3l-6.8-34.4z"/><path class="c" d="m339.6 210.3h89.2v94.6h-89.2z"/><path class="a" d="m428.8 224.1h4.4v4.4h-4.4z"/><path class="a" d="m428.8 238.1h4.4v4.3h-4.4z"/><path class="a" d="m428.8 252h4.4v4.3h-4.4z"/><path class="a" d="m428.8 265.9h4.4v4.4h-4.4z"/><path class="a" d="m433.4 253.2q0.1 0 0.3 0 0.2-0.1 0.3-0.1 0.2-0.1 0.4-0.1 0.1 0 0.3 0 0.5-0.1 0.9-0.2 0.5-0.1 1-0.1 0.5 0 0.9-0.1 0.5 0 1 0 0.7 0 1.4 0.1 0.7 0 1.4 0.2 0.7 0.2 1.3 0.5 0.7 0.3 1.3 0.6 0.8 0.5 1.4 1.1 0.6 0.7 1 1.5 0.4 0.8 0.5 1.7 0.2 0.8 0.1 1.7 0 0.5-0.1 0.9-0.1 0.5-0.3 0.9-0.1 0.4-0.3 0.9-0.2 0.4-0.5 0.8-0.2 0.3-0.4 0.6-0.3 0.4-0.6 0.7-0.3 0.3-0.6 0.6-0.3 0.3-0.7 0.5-0.5 0.4-1.2 0.7-0.6 0.4-1.2 0.6-0.7 0.3-1.4 0.5-0.7 0.2-1.4 0.3-0.4 0-0.9 0.1-0.5 0-1 0-0.4 0-0.9 0-0.5 0-0.9 0-0.2 0-0.4 0-0.2 0-0.3-0.1-0.2 0-0.4 0-0.1-0.1-0.3-0.1 0.2 0 0.3 0 0.2 0 0.4 0 0.1 0 0.3 0 0.2 0 0.4 0 0.4 0 0.9 0 0.5 0 0.9-0.1 0.5 0 0.9-0.1 0.5 0 1-0.1 0.6-0.1 1.3-0.3 0.7-0.2 1.3-0.4 0.6-0.3 1.2-0.6 0.6-0.4 1.2-0.8 0.6-0.4 1.2-1.1 0.6-0.6 1-1.3 0.4-0.7 0.6-1.5 0.3-0.8 0.4-1.6 0.1-0.8-0.1-1.6-0.1-0.8-0.5-1.6-0.4-0.7-0.9-1.3-0.6-0.6-1.3-1.1-0.6-0.3-1.2-0.6-0.6-0.3-1.3-0.4-0.6-0.2-1.3-0.3-0.7-0.1-1.3-0.1-0.5 0-1 0-0.4 0-0.9 0-0.5 0-0.9 0.1-0.5 0-1 0.1-0.1 0-0.3 0-0.2 0-0.3 0-0.2 0.1-0.4 0.1-0.2 0-0.3-0.1z"/><path class="a" d="m432.3 239.4q0 0 0.1-0.1 0 0 0.1 0 0 0 0.1-0.1 0 0 0.1 0 0.1-0.1 0.3-0.2 0.2-0.1 0.3-0.1 0.2-0.1 0.4-0.1 0.1-0.1 0.3-0.2 0.6-0.1 1.2-0.3 0.7-0.1 1.3-0.1 0.7-0.1 1.3 0 0.7 0 1.3 0.2 0.2 0 0.4 0.1 0.3 0 0.5 0.1 0.2 0.1 0.4 0.2 0.2 0.1 0.3 0.2 0.3 0.1 0.4 0.3 0.2 0.2 0.4 0.4 0.1 0.2 0.2 0.4 0.1 0.2 0.2 0.5 0.2 0.8 0 1.6-0.1 0.8-0.5 1.6-0.4 0.7-1 1.2-0.6 0.6-1.4 0.9-0.2 0.1-0.5 0.2-0.4 0-0.7 0-0.3 0-0.6-0.1-0.3-0.1-0.6-0.2-0.3-0.2-0.5-0.4-0.3-0.2-0.4-0.5-0.2-0.2-0.3-0.6-0.1-0.3-0.2-0.6 0.1-0.4 0.2-0.7 0.1-0.3 0.3-0.6 0.1-0.3 0.4-0.5 0.3-0.2 0.6-0.4 0.3-0.1 0.6-0.2 0.3-0.1 0.6-0.1 0.3-0.1 0.7 0 0.3 0 0.6 0 0.3 0.1 0.6 0.2 0.3 0.1 0.6 0.3 0.3 0.1 0.5 0.3 0.3 0.1 0.5 0.3 0.5 0.4 0.9 0.8 0.4 0.5 0.7 1 0.2 0.5 0.4 1.1 0.2 0.5 0.3 1.1 0 0.5 0 1.1-0.1 0.5-0.2 1-0.2 0.5-0.4 1-0.2 0.5-0.6 0.9-0.2 0.4-0.6 0.7-0.3 0.3-0.6 0.6-0.4 0.3-0.7 0.6-0.4 0.2-0.8 0.4-0.6 0.3-1.2 0.5-0.6 0.3-1.2 0.4-0.7 0.2-1.3 0.3-0.7 0.1-1.3 0.1-0.9 0.1-1.4 0.1-0.1 0-0.1 0-0.1 0-0.1 0-0.1 0-0.2 0 0 0-0.1 0c0 0 0.7-0.1 1.9-0.3q0.6 0 1.2-0.1 0.6-0.2 1.2-0.3 0.7-0.2 1.2-0.5 0.6-0.2 1.2-0.5 0.4-0.2 0.7-0.4 0.4-0.3 0.7-0.6 0.3-0.2 0.6-0.6 0.3-0.3 0.6-0.6 0.2-0.4 0.5-0.8 0.2-0.5 0.3-1 0.1-0.4 0.2-0.9 0-0.5 0-1-0.1-0.5-0.3-1-0.1-0.5-0.4-1-0.3-0.5-0.6-0.9-0.4-0.4-0.8-0.7-0.2-0.2-0.5-0.3-0.2-0.2-0.4-0.3-0.3-0.1-0.6-0.2-0.2-0.1-0.5-0.2-0.3 0-0.6 0-0.2-0.1-0.5 0-0.3 0-0.6 0.1-0.3 0.1-0.5 0.2-0.3 0.1-0.5 0.3-0.2 0.1-0.3 0.4-0.2 0.2-0.3 0.5 0 0.2-0.1 0.5 0.1 0.2 0.2 0.5 0 0.2 0.2 0.5 0.1 0.2 0.3 0.3 0.2 0.2 0.5 0.3 0.2 0.2 0.4 0.2 0.3 0.1 0.5 0.1 0.3 0 0.6 0 0.2-0.1 0.5-0.2 0.2-0.1 0.4-0.2 0.3-0.1 0.5-0.3 0.2-0.1 0.4-0.3 0.1-0.2 0.3-0.4 0.3-0.3 0.6-0.7 0.2-0.5 0.3-0.9 0.2-0.5 0.2-1 0-0.4-0.1-0.9-0.1-0.4-0.4-0.8-0.2-0.3-0.5-0.6-0.4-0.2-0.7-0.4-0.4-0.2-0.8-0.2-0.7-0.2-1.3-0.2-0.6-0.1-1.2-0.1-0.7 0.1-1.3 0.1-0.6 0.1-1.2 0.3c-1.2 0.2-1.8 0.6-1.8 0.5z"/><path class="a" d="m432.3 225.8q0.1 0 0.3 0 0.1-0.1 0.2-0.1 0.1 0 0.3 0 0.1 0 0.2 0 0.4-0.1 0.7 0 0.3 0 0.7 0 0.3 0 0.6 0.1 0.4 0.1 0.7 0.2 0.5 0.2 0.9 0.4 0.5 0.2 0.9 0.5 0.4 0.3 0.8 0.6 0.4 0.4 0.7 0.7 0.4 0.5 0.8 1.1 0.3 0.5 0.5 1.1 0.2 0.6 0.3 1.2 0.1 0.6 0.2 1.2 0 0.7-0.1 1.3-0.1 0.6-0.3 1.2-0.1 0.6-0.4 1.2-0.3 0.5-0.7 1-0.3 0.5-0.7 0.8-0.3 0.4-0.7 0.7-0.4 0.3-0.9 0.6-0.4 0.2-0.9 0.4-0.3 0.1-0.6 0.2-0.4 0.1-0.7 0.2-0.3 0.1-0.7 0.1-0.3 0-0.7 0-0.1 0.1-0.2 0.1-0.1 0-0.3-0.1-0.1 0-0.2 0-0.1 0-0.3-0.1 0.5 0 0.9 0 0.5-0.1 0.9-0.2 0.5-0.1 0.9-0.2 0.4-0.2 0.8-0.3 0.5-0.2 0.9-0.5 0.4-0.2 0.8-0.5 0.3-0.3 0.7-0.7 0.3-0.3 0.6-0.7 0.7-1 1-2.1 0.3-1.1 0.3-2.3 0-1.2-0.4-2.3-0.5-1.1-1.2-2-0.3-0.4-0.6-0.7-0.4-0.4-0.8-0.6-0.4-0.3-0.8-0.5-0.4-0.3-0.9-0.4-0.4-0.2-0.8-0.3-0.5-0.1-0.9-0.2-0.4 0-0.9 0-0.4-0.1-0.9-0.1z"/><path class="a" d="m366.1 160.1q0.1 0.2 0.2 0.4 0.1 0.2 0.2 0.4 0.1 0.3 0.2 0.5 0.1 0.2 0.1 0.4 0.2 0.7 0.4 1.4 0.2 0.6 0.3 1.3 0.2 0.7 0.3 1.4 0.1 0.6 0.2 1.3c0.4 2.4 0.7 5.3 1 8.6 0.3 3.4 0.6 7.3 1.2 11.5q0.2 1.6 0.5 3.2 0.1 0.4 0.2 0.9 0.1 0.4 0.2 0.8 0.1 0.4 0.3 0.8 0.1 0.4 0.3 0.7 0.2 0.4 0.5 0.8 0.2 0.3 0.5 0.7 0.3 0.3 0.6 0.6 0.3 0.4 0.6 0.6 1 1 2.2 1.8 1.1 0.8 2.4 1.4 1.3 0.6 2.7 1 1.4 0.4 2.8 0.5 1 0.1 2 0.1 1 0 2-0.2 1-0.2 2-0.5 0.9-0.3 1.8-0.7 1-0.5 1.8-1.2 0.9-0.6 1.5-1.5 0.7-0.8 1.1-1.7 0.5-1 0.7-2 0.2-0.6 0.2-1.1 0-0.5 0-1.1 0-0.5-0.2-1-0.1-0.6-0.3-1.1-0.2-0.5-0.5-1-0.2-0.4-0.6-0.9-0.3-0.4-0.8-0.8-0.4-0.3-0.8-0.6-0.5-0.3-1-0.6-0.5-0.2-1-0.4-0.6-0.2-1.1-0.3-0.6-0.1-1.2-0.1-0.5-0.1-1.1 0-0.5 0.1-1.1 0.2-0.5 0.2-1 0.4-0.6 0.3-1 0.6-0.2 0.2-0.5 0.4-0.2 0.2-0.3 0.4-0.2 0.2-0.4 0.4-0.1 0.3-0.3 0.5-0.1 0.3-0.2 0.6-0.1 0.2-0.1 0.5 0 0.3 0 0.6 0 0.2 0 0.5 0.2 0.6 0.4 1.1 0.3 0.5 0.6 1 0.4 0.4 0.9 0.8 0.4 0.4 0.9 0.6 0.6 0.3 1.1 0.5 0.6 0.2 1.1 0.4 0.6 0.1 1.2 0.2 0.6 0.1 1.2 0.2 0.6 0.1 1.2 0.1 0.6 0.1 1.1 0.1 0.6 0.1 1.2 0.1 0.6 0 1.2 0 1.2 0 2.4 0 1.1 0 2.3-0.1 1.2-0.1 2.3-0.2 1.2-0.1 2.3-0.2c6.1-0.7 12-1.7 17.7-1.7 5.6-0.1 11.1 0.7 15.7 3q0.8 0.4 1.6 0.8 0.8 0.5 1.5 1.1 0.8 0.5 1.4 1.1 0.7 0.7 1.3 1.3 0.6 0.7 1 1.4 0.5 0.7 0.9 1.5 0.4 0.7 0.7 1.5 0.2 0.8 0.4 1.6 0.3 1.5 0.4 2.9 0 1.5-0.2 2.9-0.3 1.5-0.7 2.9-0.5 1.3-1.2 2.6-0.6 0.9-1.2 1.8-0.7 0.9-1.4 1.7-0.8 0.8-1.6 1.5-0.8 0.7-1.8 1.3-0.5 0.4-1.1 0.8-0.6 0.3-1.2 0.6-0.6 0.3-1.3 0.6-0.6 0.3-1.3 0.5-0.2 0.1-0.4 0.2-0.2 0.1-0.5 0.1-0.2 0.1-0.4 0.2-0.3 0-0.5 0.1l0.5-0.2q0.4-0.1 1.3-0.5 0.6-0.2 1.3-0.5 0.6-0.3 1.2-0.6 0.6-0.3 1.2-0.7 0.6-0.3 1.1-0.7 0.9-0.6 1.7-1.4 0.9-0.7 1.6-1.5 0.7-0.8 1.4-1.6 0.6-0.9 1.1-1.8 0.7-1.3 1.2-2.6 0.4-1.4 0.6-2.8 0.2-1.4 0.2-2.8-0.1-1.4-0.4-2.8-0.1-0.8-0.4-1.6-0.3-0.8-0.7-1.5-0.4-0.8-0.8-1.5-0.5-0.6-1.1-1.3-0.6-0.6-1.2-1.2-0.7-0.6-1.4-1.2-0.7-0.5-1.5-1-0.8-0.4-1.6-0.8c-4.5-2.2-9.9-3-15.5-2.9-5.6 0.2-11.5 1.1-17.6 1.8q-1.1 0.1-2.3 0.2-1.2 0.1-2.4 0.2-1.1 0.1-2.3 0.1-1.2 0-2.4 0-0.6 0-1.2 0-0.6 0-1.2-0.1-0.6 0-1.2-0.1-0.6 0-1.2-0.1-0.6-0.1-1.2-0.2-0.6-0.1-1.2-0.3-0.6-0.1-1.2-0.3-0.5-0.3-1.1-0.5-0.6-0.3-1.1-0.7-0.4-0.4-0.8-0.9-0.4-0.6-0.7-1.1-0.3-0.6-0.4-1.2-0.1-0.3-0.1-0.7 0-0.3 0.1-0.6 0-0.3 0.1-0.6 0.1-0.3 0.2-0.6 0.2-0.3 0.3-0.6 0.2-0.2 0.4-0.5 0.2-0.2 0.4-0.4 0.3-0.2 0.5-0.4 0.5-0.4 1.1-0.7 0.5-0.2 1.1-0.4 0.6-0.2 1.2-0.2 0.6-0.1 1.2-0.1 0.6 0.1 1.2 0.2 0.6 0.1 1.2 0.3 0.5 0.2 1.1 0.4 0.5 0.3 1 0.6 0.5 0.3 0.9 0.7 0.5 0.4 0.9 0.9 0.3 0.4 0.6 1 0.3 0.5 0.6 1 0.2 0.5 0.3 1.1 0.1 0.6 0.2 1.2 0 0.5 0 1.1-0.1 0.6-0.2 1.1-0.3 1.1-0.8 2.1-0.4 1-1.1 1.9-0.7 0.9-1.6 1.6-0.9 0.7-1.9 1.2-0.9 0.4-1.9 0.7-1 0.4-2 0.5-1.1 0.2-2.1 0.2-1.1 0.1-2.1-0.1-1-0.1-2-0.3-0.9-0.2-1.9-0.5-0.9-0.3-1.8-0.7-0.9-0.5-1.7-1-0.4-0.2-0.8-0.5-0.4-0.3-0.7-0.6-0.4-0.2-0.8-0.5-0.3-0.4-0.7-0.7-0.3-0.3-0.6-0.6-0.3-0.4-0.6-0.7-0.3-0.4-0.5-0.7-0.3-0.4-0.5-0.8-0.2-0.4-0.3-0.8-0.2-0.4-0.3-0.8-0.1-0.5-0.2-0.9-0.1-0.4-0.2-0.8-0.3-1.7-0.5-3.3c-0.5-4.2-0.8-8.1-1.1-11.5-0.3-3.3-0.6-6.2-0.9-8.6q-0.1-0.7-0.2-1.3-0.1-0.7-0.2-1.4-0.2-0.7-0.3-1.3-0.2-0.7-0.4-1.4 0-0.1-0.1-0.3 0-0.2-0.1-0.3 0-0.2-0.1-0.4-0.1-0.1-0.1-0.3-0.1-0.1-0.1-0.1 0-0.1 0-0.2-0.1 0-0.1-0.1 0-0.1 0-0.1z"/><path class="a" d="m423.7 301q0 0 0-0.4 0-0.4 0-1.2 0-1.6 0-4.7c0-4.1 0-10.1 0-17.7 0-15.3-0.1-37-0.1-62.9l0.2 0.2h-80.7l0.3-0.3c0 32 0 61.9 0 87l-0.2-0.3 58.4 0.2h16.4 4.3 1.5-1.4l-4.4 0.1-16.3 0.1-58.6 0.1h-0.3v-0.2c0-25.1 0-55 0-86.9v-0.3h0.3 80.7 0.2v0.2c-0.1 26-0.1 47.8-0.1 63 0 7.6 0 13.6-0.1 17.7 0 2 0 3.5 0 4.6q0 0.8 0 1.2c0 0.3-0.1 0.5-0.1 0.5z"/><path class="a" d="m401 224.7q0 0.1 0 0.2-0.1 0.1-0.1 0.1-0.1 0.1-0.2 0.1 0 0-0.1 0-0.2 0.1-0.3 0-0.2-0.2-0.2-0.4 0-0.2 0.2-0.3 0.1-0.1 0.3-0.1 0.1 0 0.1 0.1 0.1 0 0.2 0 0 0.1 0.1 0.2 0 0 0 0.1z"/><path class="a" d="m403.3 224.7q0 0.1 0 0.2 0 0.1-0.1 0.1-0.1 0.1-0.1 0.1-0.1 0-0.2 0-0.2 0.1-0.3 0-0.2-0.2-0.2-0.4 0-0.2 0.2-0.3 0.1-0.1 0.3-0.1 0.1 0 0.2 0.1 0 0 0.1 0 0 0.1 0.1 0.2 0 0 0 0.1z"/><path class="a" d="m405.6 224.7q0 0.1 0 0.2-0.1 0.1-0.1 0.1-0.1 0.1-0.2 0.1 0 0-0.1 0-0.2 0.1-0.4 0-0.1-0.2-0.1-0.4 0-0.2 0.1-0.3 0.2-0.1 0.4-0.1 0.1 0 0.1 0.1 0.1 0 0.2 0 0 0.1 0.1 0.2 0 0 0 0.1z"/><path class="a" d="m407.9 224.7c0 0.2-0.1 0.4-0.3 0.4-0.1 0.1-0.3 0.1-0.4-0.1-0.2-0.1-0.2-0.3-0.1-0.4 0-0.2 0.2-0.3 0.3-0.3q0.1 0 0.2 0.1 0.1 0 0.1 0 0.1 0.1 0.1 0.2 0.1 0 0.1 0.1z"/><path class="a" d="m410.1 224.7q0 0.1 0 0.2 0 0.1-0.1 0.1 0 0.1-0.1 0.1-0.1 0-0.2 0-0.1 0-0.2-0.1-0.1-0.1-0.1-0.3 0-0.1 0.1-0.2 0.1-0.2 0.2-0.2 0.1 0 0.2 0.1 0.1 0 0.1 0 0.1 0.1 0.1 0.2 0 0 0 0.1z"/><path class="a" d="m412.4 224.7q0 0.1 0 0.2 0 0.1-0.1 0.1-0.1 0.1-0.1 0.1-0.1 0-0.2 0-0.1 0-0.2-0.1-0.1-0.1-0.1-0.3 0-0.1 0.1-0.2 0.1-0.2 0.2-0.2 0.1 0 0.2 0.1 0 0 0.1 0 0.1 0.1 0.1 0.2 0 0 0 0.1z"/><path class="a" d="m414.7 224.7q0 0.1 0 0.2-0.1 0.1-0.1 0.1-0.1 0.1-0.1 0.1-0.1 0-0.2 0-0.2 0-0.3-0.1-0.1-0.1-0.1-0.3 0-0.1 0.1-0.2 0.1-0.2 0.3-0.2 0.1 0 0.1 0.1 0.1 0 0.2 0 0 0.1 0.1 0.2 0 0 0 0.1z"/><path class="a" d="m413.2 226.7c-0.2 0-0.4-0.2-0.4-0.4 0-0.3 0.2-0.4 0.4-0.4 0.3 0 0.4 0.1 0.4 0.4 0 0.2-0.1 0.4-0.4 0.4z"/><path class="a" d="m410.9 226.7c-0.2 0-0.4-0.2-0.4-0.4 0-0.3 0.2-0.4 0.4-0.4 0.2 0 0.4 0.1 0.4 0.4 0 0.2-0.2 0.4-0.4 0.4z"/><path class="a" d="m409 226.3q0 0.1 0 0.1-0.1 0.1-0.1 0.2-0.1 0-0.2 0 0 0.1-0.1 0.1-0.1 0-0.2 0 0-0.1-0.1-0.1-0.1-0.1-0.1-0.2 0 0 0-0.1 0-0.1 0-0.2 0-0.1 0.1-0.1 0.1-0.1 0.1-0.1 0.1 0 0.2-0.1 0.1 0.1 0.1 0.1 0.1 0 0.2 0.1 0 0 0.1 0.1 0 0.1 0 0.2z"/><path class="a" d="m406.2 226.7c-0.2 0-0.4-0.2-0.4-0.4 0-0.3 0.2-0.4 0.4-0.4 0.3 0 0.5 0.1 0.5 0.4 0 0.2-0.2 0.4-0.5 0.4z"/><path class="a" d="m403.9 226.7c-0.2 0-0.4-0.2-0.4-0.4 0-0.3 0.2-0.4 0.4-0.4 0.2 0 0.4 0.1 0.4 0.4 0 0.2-0.2 0.4-0.4 0.4z"/><path class="a" d="m402 226.3q0 0.1 0 0.1-0.1 0.1-0.1 0.2-0.1 0-0.2 0.1 0 0-0.1 0-0.1 0-0.2-0.1-0.1 0-0.1 0-0.1-0.1-0.1-0.2 0 0 0-0.1 0-0.1 0-0.2 0-0.1 0.1-0.1 0-0.1 0.1-0.1 0.1 0 0.2-0.1 0.1 0.1 0.1 0.1 0.1 0 0.2 0.1 0 0 0.1 0.1 0 0.1 0 0.2z"/><path class="a" d="m401 228q0 0.1 0 0.2-0.1 0-0.1 0.1-0.1 0-0.2 0.1 0 0-0.1 0-0.1 0-0.2 0 0 0-0.1-0.1-0.1-0.1-0.1-0.1 0-0.1 0-0.2 0-0.1 0-0.2 0 0 0.1-0.1 0.1-0.1 0.1-0.1 0.1 0 0.2 0 0.1 0 0.1 0 0.1 0 0.2 0.1 0 0.1 0.1 0.1 0 0.1 0 0.2z"/><path class="a" d="m403.3 228q0 0.1 0 0.2-0.1 0-0.1 0.1-0.1 0-0.1 0.1-0.1 0-0.2 0-0.1 0-0.2 0 0 0-0.1-0.1-0.1-0.1-0.1-0.1 0-0.1 0-0.2 0-0.1 0-0.2 0 0 0.1-0.1 0.1-0.1 0.1-0.1 0.1 0 0.2 0 0.1 0 0.2 0 0 0 0.1 0.1 0.1 0.1 0.1 0.1 0 0.1 0 0.2z"/><path class="a" d="m405.6 228q0 0.1 0 0.2-0.1 0-0.1 0.1-0.1 0-0.2 0.1 0 0-0.1 0-0.1 0-0.2 0-0.1 0-0.1-0.1-0.1-0.1-0.1-0.1 0-0.1 0-0.2 0-0.1 0-0.2 0 0 0.1-0.1 0-0.1 0.1-0.1 0.1 0 0.2 0 0.1 0 0.1 0 0.1 0 0.2 0.1 0 0.1 0.1 0.1 0 0.1 0 0.2z"/><path class="a" d="m407.9 228q-0.1 0.2-0.2 0.3-0.1 0.1-0.2 0.1-0.2 0-0.3-0.1-0.1-0.1-0.2-0.3 0-0.2 0.1-0.3 0.2-0.2 0.4-0.2 0.1 0 0.3 0.2 0.1 0.1 0.1 0.3z"/><path class="a" d="m410.1 228q0 0.1 0 0.2 0 0-0.1 0.1 0 0.1-0.1 0.1-0.1 0-0.2 0-0.1 0-0.1 0-0.1-0.1-0.2-0.1 0-0.1 0-0.1-0.1-0.1-0.1-0.2 0-0.1 0-0.2 0.1 0 0.1-0.1 0.1-0.1 0.2-0.1 0 0 0.1 0 0.1 0 0.2 0 0.1 0 0.1 0.1 0.1 0.1 0.1 0.1 0 0.1 0 0.2z"/><path class="a" d="m412.4 228q0 0.1 0 0.2 0 0-0.1 0.1-0.1 0.1-0.1 0.1-0.1 0-0.2 0-0.1 0-0.1 0-0.1-0.1-0.2-0.1 0-0.1-0.1-0.1 0-0.1 0-0.2 0-0.1 0-0.2 0.1 0 0.1-0.1 0.1-0.1 0.2-0.1 0 0 0.1 0 0.1 0 0.2 0 0 0 0.1 0.1 0.1 0.1 0.1 0.1 0 0.1 0 0.2z"/><path class="a" d="m414.7 228q0 0.1 0 0.2-0.1 0-0.1 0.1-0.1 0.1-0.2 0.1 0 0-0.1 0-0.1 0-0.2 0 0-0.1-0.1-0.1-0.1-0.1-0.1-0.1 0-0.1 0-0.2 0-0.1 0-0.2 0 0 0.1-0.1 0.1-0.1 0.1-0.1 0.1 0 0.2 0 0.1 0 0.2 0 0 0 0.1 0.1 0 0.1 0.1 0.1 0 0.1 0 0.2z"/><path class="a" d="m413.7 229.5q0 0.1-0.1 0.2 0 0.1-0.1 0.1 0 0.1-0.1 0.1-0.1 0-0.2 0 0 0-0.1 0-0.1 0-0.2-0.1 0 0 0-0.1-0.1-0.1-0.1-0.2 0-0.1 0.1-0.1 0-0.1 0.1-0.2 0 0 0.1 0 0.1-0.1 0.1-0.1 0.1 0 0.2 0 0.1 0.1 0.1 0.1 0.1 0.1 0.1 0.2 0.1 0 0.1 0.1z"/><path class="a" d="m411.3 229.5q0 0.1 0 0.2 0 0.1-0.1 0.1-0.1 0.1-0.1 0.1-0.1 0-0.2 0-0.1 0-0.2 0 0 0-0.1-0.1 0 0-0.1-0.1 0-0.1 0-0.2 0-0.1 0-0.1 0.1-0.1 0.1-0.2 0.1 0 0.2-0.1 0 0 0.1 0 0.1 0 0.2 0.1 0 0 0.1 0 0.1 0.1 0.1 0.2 0 0 0 0.1z"/><path class="a" d="m409 229.5q0 0.1 0 0.2-0.1 0.1-0.1 0.1-0.1 0.1-0.2 0.1 0 0-0.1 0-0.1 0-0.2 0 0 0-0.1-0.1-0.1 0-0.1-0.1 0-0.1 0-0.2 0-0.1 0-0.1 0-0.1 0.1-0.2 0.1 0 0.1-0.1 0.1 0 0.2 0 0.1 0 0.1 0.1 0.1 0 0.2 0 0 0.1 0.1 0.2 0 0 0 0.1z"/><path class="a" d="m406.7 229.5q0 0.1-0.1 0.2 0 0.1-0.1 0.1 0 0.1-0.1 0.1-0.1 0-0.2 0 0 0-0.1 0-0.1 0-0.1-0.1-0.1 0-0.1-0.1-0.1-0.1-0.1-0.2 0-0.1 0.1-0.1 0-0.1 0.1-0.2 0 0 0.1-0.1 0.1 0 0.1 0 0.1 0 0.2 0.1 0.1 0 0.1 0 0.1 0.1 0.1 0.2 0.1 0 0.1 0.1z"/><path class="a" d="m404.3 229.5q0.1 0.2-0.1 0.4-0.1 0.1-0.3 0.1-0.2 0-0.3-0.1-0.1-0.2-0.1-0.4 0-0.1 0.1-0.2 0.2-0.1 0.3-0.1 0.2 0 0.3 0.1 0.1 0.1 0.1 0.2z"/><path class="a" d="m402 229.5q0 0.1 0 0.2-0.1 0.1-0.1 0.1-0.1 0.1-0.2 0.1 0 0-0.1 0-0.1 0-0.2 0-0.1 0-0.1-0.1-0.1 0-0.1-0.1 0-0.1 0-0.2 0-0.1 0-0.1 0-0.1 0.1-0.2 0 0 0.1 0 0.1-0.1 0.2-0.1 0.1 0 0.1 0 0.1 0.1 0.2 0.1 0 0.1 0.1 0.2 0 0 0 0.1z"/><path class="a" d="m401 231.3q0 0 0 0.1-0.1 0.1-0.1 0.2-0.1 0-0.2 0 0 0.1-0.1 0.1-0.1 0-0.2-0.1 0 0-0.1 0-0.1-0.1-0.1-0.2 0-0.1 0-0.1 0-0.1 0-0.2 0-0.1 0.1-0.1 0.1-0.1 0.1-0.1 0.1-0.1 0.2-0.1 0.1 0.1 0.1 0.1 0.1 0 0.2 0.1 0 0 0.1 0.1 0 0.1 0 0.2z"/><path class="a" d="m403.3 231.3q0 0 0 0.1 0 0.1-0.1 0.2-0.1 0-0.1 0-0.1 0.1-0.2 0.1-0.1 0-0.2-0.1 0 0-0.1 0-0.1-0.1-0.1-0.2 0-0.1 0-0.1 0-0.1 0-0.2 0-0.1 0.1-0.1 0.1-0.1 0.1-0.1 0.1-0.1 0.2-0.1 0.1 0.1 0.2 0.1 0 0 0.1 0.1 0 0 0.1 0.1 0 0.1 0 0.2z"/><path class="a" d="m405.6 231.3q0 0 0 0.1-0.1 0.1-0.1 0.2-0.1 0-0.2 0 0 0.1-0.1 0.1-0.1 0-0.2-0.1-0.1 0-0.1 0-0.1-0.1-0.1-0.2 0-0.1 0-0.1 0-0.1 0-0.2 0-0.1 0.1-0.1 0-0.1 0.1-0.1 0.1-0.1 0.2-0.1 0.1 0.1 0.1 0.1 0.1 0 0.2 0.1 0 0 0.1 0.1 0 0.1 0 0.2z"/><path class="a" d="m407.9 231.3q0 0.1-0.1 0.3-0.2 0.1-0.3 0.1-0.2 0-0.4-0.1-0.1-0.2-0.1-0.3 0.1-0.2 0.2-0.3 0.1-0.1 0.3-0.1 0.1 0 0.2 0.1 0.1 0.1 0.2 0.3z"/><path class="a" d="m410.1 231.3q0 0 0 0.1 0 0.1-0.1 0.2 0 0-0.1 0-0.1 0.1-0.2 0.1-0.1 0-0.1-0.1-0.1 0-0.2 0 0-0.1-0.1-0.2 0-0.1 0-0.1 0-0.1 0.1-0.2 0-0.1 0-0.1 0.1-0.1 0.2-0.1 0 0 0.1-0.1 0.1 0 0.2 0.1 0.1 0 0.1 0.1 0.1 0 0.1 0.1 0 0.1 0 0.2z"/><path class="a" d="m412.4 231.3q0 0 0 0.1 0 0.1-0.1 0.2-0.1 0-0.1 0-0.1 0.1-0.2 0.1-0.1 0-0.1-0.1-0.1 0-0.2 0 0-0.1-0.1-0.2 0-0.1 0-0.1 0-0.1 0-0.2 0.1-0.1 0.1-0.1 0.1-0.1 0.2-0.1 0 0 0.1-0.1 0.1 0 0.2 0.1 0 0 0.1 0.1 0.1 0 0.1 0.1 0 0.1 0 0.2z"/><path class="a" d="m414.7 231.3q0 0 0 0.1-0.1 0.1-0.1 0.2-0.1 0-0.1 0-0.1 0.1-0.2 0.1-0.1 0-0.2-0.1 0 0-0.1 0-0.1-0.1-0.1-0.2 0-0.1 0-0.1 0-0.1 0-0.2 0-0.1 0.1-0.1 0.1-0.1 0.1-0.1 0.1 0 0.2-0.1 0.1 0 0.1 0.1 0.1 0 0.2 0.1 0 0 0.1 0.1 0 0.1 0 0.2z"/><path class="a" d="m413.2 233.2c-0.2 0-0.4-0.2-0.4-0.4 0-0.2 0.2-0.4 0.4-0.4 0.3 0 0.4 0.2 0.4 0.4 0 0.2-0.1 0.4-0.4 0.4z"/><path class="a" d="m410.9 233.2c-0.2 0-0.4-0.2-0.4-0.4 0-0.2 0.2-0.4 0.4-0.4 0.2 0 0.4 0.2 0.4 0.4 0 0.2-0.2 0.4-0.4 0.4z"/><path class="a" d="m409 232.8q0 0.1 0 0.2-0.1 0-0.1 0.1-0.1 0-0.2 0.1 0 0-0.1 0-0.2 0-0.3-0.1-0.2-0.1-0.2-0.3 0-0.2 0.2-0.3 0.1-0.1 0.3-0.1 0.1 0 0.1 0 0.1 0 0.2 0.1 0 0.1 0.1 0.1 0 0.1 0 0.2z"/><path class="a" d="m406.2 233.2c-0.2 0-0.4-0.2-0.4-0.4 0-0.2 0.2-0.4 0.4-0.4 0.3 0 0.5 0.2 0.5 0.4 0 0.2-0.2 0.4-0.5 0.4z"/><path class="a" d="m403.9 233.2c-0.2 0-0.4-0.2-0.4-0.4 0-0.2 0.2-0.4 0.4-0.4 0.2 0 0.4 0.2 0.4 0.4 0 0.2-0.2 0.4-0.4 0.4z"/><path class="a" d="m402 232.8q0 0.1 0 0.2-0.1 0-0.1 0.1-0.1 0-0.2 0.1 0 0-0.1 0-0.2 0-0.3-0.1-0.1-0.2-0.1-0.3 0-0.2 0.1-0.3 0.1-0.1 0.3-0.1 0.1 0 0.1 0 0.1 0 0.2 0.1 0 0.1 0.1 0.1 0 0.1 0 0.2z"/><path class="h" d="m369.5 131.3q0.2 0 0.4 0 0.2 0 0.4 0.1 0.2 0 0.4 0.1 0.2 0 0.4 0.1 0.6 0.2 1.1 0.4 0.6 0.3 1.1 0.6 0.5 0.3 0.9 0.7 0.5 0.4 0.9 0.8 0.6 0.8 1.1 1.5 0.5 0.8 1 1.7 0.4 0.8 0.8 1.7 0.3 0.8 0.5 1.7 0.4 1.2 0.7 2.4 0.4 1.2 0.6 2.4 0.3 1.3 0.5 2.5 0.3 1.2 0.4 2.4 0.5 3.2 0.7 6.4 0.3 3.3 0.3 6.5 0.1 3.2 0 6.4-0.1 3.3-0.3 6.5-0.1 0.9-0.2 1.8-0.2 1-0.5 1.9-0.3 0.9-0.7 1.7-0.4 0.9-0.9 1.7-0.2 0.4-0.6 0.8-0.3 0.4-0.6 0.7-0.4 0.4-0.8 0.7-0.4 0.3-0.8 0.5-0.4 0.3-0.9 0.5-0.5 0.2-1 0.3-0.5 0.1-1 0.2-0.5 0-1 0-0.5-0.1-1-0.2-0.5-0.2-1-0.4-0.5-0.2-0.9-0.5-0.4-0.3-0.8-0.7-0.2-0.2-0.3-0.4-0.2-0.2-0.3-0.4-0.2-0.2-0.3-0.5-0.1-0.2-0.2-0.5-0.1-0.2-0.1-0.5 0-0.3 0-0.5 0-0.3 0-0.6 0-0.3 0.1-0.5 0.2-0.6 0.4-1 0.3-0.5 0.6-0.9 0.4-0.4 0.8-0.8 0.5-0.3 1-0.5 0.3-0.1 0.6-0.1 0.2-0.1 0.5-0.1 0.3 0 0.6 0.1 0.3 0 0.5 0.1 0.3 0.1 0.5 0.3 0.3 0.1 0.5 0.3 0.2 0.1 0.4 0.3 0.2 0.2 0.4 0.5 0.3 0.4 0.5 0.9 0.3 0.5 0.4 1 0.1 0.6 0.1 1.1 0.1 0.6 0 1.1-0.1 0.5-0.2 1-0.2 0.5-0.4 1-0.1 0.5-0.4 1-0.2 0.5-0.5 0.9c-0.9 1.8-2.2 3.3-3.8 4.5-1.5 1.2-3.3 2.2-5.2 2.7-1.9 0.6-3.9 0.7-5.9 0.5-1.9-0.2-3.8-0.8-5.6-1.7q-0.8-0.5-1.5-1-0.7-0.5-1.4-1.1-0.7-0.6-1.3-1.2-0.6-0.7-1.2-1.4-0.5-0.6-1-1.3-0.4-0.7-0.9-1.5-0.4-0.7-0.7-1.5-0.4-0.7-0.7-1.5-0.5-1.4-0.9-2.9-0.4-1.4-0.7-2.9-0.2-1.5-0.4-3-0.1-1.5-0.2-3c-0.2-3.7 0-7-0.3-9.9q-0.1-0.5-0.2-1-0.1-0.5-0.2-1-0.1-0.4-0.3-0.9-0.1-0.5-0.3-1-0.1-0.4-0.3-0.8-0.2-0.3-0.4-0.7-0.2-0.4-0.4-0.7-0.3-0.4-0.5-0.7-0.4-0.5-0.8-0.9-0.4-0.4-0.9-0.7-0.5-0.4-1-0.7-0.5-0.2-1.1-0.5-0.2 0-0.4-0.1-0.1 0-0.3-0.1-0.2 0-0.4-0.1-0.2 0-0.5 0 0.3 0 0.5 0 0.2 0 0.4 0.1 0.2 0 0.4 0 0.2 0.1 0.4 0.2 0.5 0.2 1.1 0.4 0.5 0.3 1 0.6 0.5 0.4 0.9 0.8 0.4 0.4 0.8 0.9 0.3 0.3 0.5 0.7 0.3 0.3 0.5 0.7 0.2 0.4 0.4 0.8 0.2 0.4 0.4 0.8 0.1 0.5 0.3 0.9 0.2 0.5 0.3 1 0.1 0.5 0.2 1 0.1 0.6 0.2 1.1c0.3 2.9 0.2 6.2 0.4 9.9q0 1.5 0.2 2.9 0.2 1.5 0.5 3 0.2 1.4 0.6 2.9 0.4 1.4 0.9 2.8 0.3 0.8 0.7 1.6 0.3 0.7 0.7 1.4 0.4 0.7 0.9 1.4 0.4 0.7 0.9 1.4 0.6 0.7 1.2 1.3 0.6 0.6 1.3 1.2 0.6 0.6 1.3 1.1 0.8 0.5 1.5 0.9c1.7 0.9 3.6 1.4 5.5 1.6 1.9 0.2 3.8 0.1 5.6-0.5 1.8-0.5 3.6-1.4 5.1-2.6 1.5-1.2 2.7-2.6 3.6-4.3q0.3-0.4 0.5-0.9 0.2-0.4 0.4-0.9 0.2-0.5 0.3-1 0.1-0.5 0.2-1 0.1-0.4 0.1-0.9 0-0.5-0.1-1-0.1-0.5-0.3-1-0.3-0.4-0.6-0.8-0.1-0.2-0.3-0.4-0.1-0.1-0.3-0.3-0.2-0.1-0.4-0.3-0.3-0.1-0.5-0.2-0.2-0.1-0.4-0.1-0.3 0-0.5 0-0.2 0-0.5 0-0.2 0-0.4 0.1-0.5 0.2-0.9 0.5-0.4 0.3-0.7 0.6-0.3 0.4-0.6 0.8-0.2 0.5-0.3 0.9-0.1 0.5-0.1 1 0 0.4 0.1 0.9 0.2 0.4 0.4 0.9 0.3 0.4 0.6 0.7 0.3 0.3 0.7 0.6 0.4 0.3 0.9 0.5 0.4 0.2 0.9 0.3 0.4 0.1 0.9 0.2 0.5 0 0.9 0 0.5-0.1 1-0.2 0.4-0.1 0.8-0.3 0.5-0.1 0.9-0.4 0.4-0.2 0.7-0.5 0.4-0.3 0.8-0.6 0.3-0.4 0.6-0.7 0.3-0.4 0.5-0.8 0.5-0.7 0.9-1.6 0.4-0.8 0.7-1.7 0.2-0.9 0.4-1.8 0.2-0.9 0.2-1.8 0.3-3.2 0.4-6.4 0.1-3.2 0-6.4 0-3.2-0.3-6.4-0.2-3.2-0.6-6.4-0.2-1.2-0.4-2.5-0.2-1.2-0.5-2.4-0.2-1.2-0.5-2.4-0.4-1.2-0.7-2.4-0.2-0.8-0.6-1.7-0.3-0.9-0.7-1.7-0.5-0.8-1-1.6-0.5-0.8-1.1-1.5-0.4-0.4-0.8-0.8-0.4-0.4-0.9-0.8-0.5-0.3-1-0.5-0.5-0.3-1.1-0.5-0.2-0.1-0.4-0.2-0.2 0-0.4-0.1-0.2-0.1-0.4-0.1-0.2-0.1-0.4-0.1z"/><path class="h" d="m328.4 145.8h33.2v6.3h-33.2z"/><path class="a" d="m78.5 211.2h43.3v93.3h-43.3z"/><path class="b" d="m118.1 294.6q0 0 0-0.4 0-0.4 0-1.1c0-1 0-2.6 0-4.5 0-3.9 0-9.5 0-16.6 0-14.3-0.1-34.3-0.2-57.6l0.3 0.3h-36.3l0.3-0.3c0 31.2 0 59.5-0.1 80.2l-0.2-0.2 26.5 0.1 7.2 0.1h1.9q0.7 0 0.7 0h-0.6-1.9-7.2l-26.6 0.1h-0.1v-0.2c0-20.8 0-49.1-0.1-80.2v-0.3h36.7v0.3c0 23.3 0 43.4-0.1 57.7 0 7 0 12.7 0 16.6q0 2.8 0 4.4 0 0.7 0 1.1c0 0.3-0.2 0.5-0.2 0.5z"/><path class="b" d="m115.9 221.2q0 0 0-1c0-0.6 0-1.5-0.1-2.7l0.1 0.1c-5.6 0.1-17.6 0.2-31.5 0.2l0.3-0.3v1.9q0 0.9 0 1.8l-0.3-0.3c8.8 0 16.7 0.1 22.3 0.1l6.8 0.1h1.8q0.1 0 0.2 0 0 0 0.1 0 0.1 0 0.2 0 0.1 0 0.1 0 0 0-0.1 0-0.1 0-0.1 0-0.1 0-0.2 0-0.1 0-0.1 0h-1.8l-6.7 0.1c-5.6 0-13.6 0.1-22.5 0.1h-0.2v-3.9l0.2-0.3c13.9 0 25.9 0.1 31.6 0.1v0.2q0 1.7-0.1 2.7 0 0.2 0 0.3 0 0.1 0 0.3 0 0.1 0 0.2 0 0.2 0 0.3z"/><path class="b" d="m87.5 223.9c0 0.1-0.6 0.2-1.4 0.2-0.8 0-1.5-0.1-1.5-0.2 0-0.2 0.7-0.3 1.5-0.3 0.8 0 1.4 0.1 1.4 0.3z"/><path class="b" d="m115 228.7c0 0.1-6.7 0.2-15 0.2-8.2 0-15-0.1-15-0.2 0-0.2 6.7-0.3 15-0.3 8.3 0 15 0.1 15 0.3z"/><path class="b" d="m115.2 234.5c0 0.1-6.6 0.2-14.8 0.2-8.1 0-14.7-0.1-14.7-0.2 0-0.2 6.6-0.3 14.7-0.3 8.2 0 14.8 0.1 14.8 0.3z"/><path class="c" d="m100.1 250.4c-1.4 0-2.4-1-2.4-2.3 0-1.3 1-2.4 2.4-2.4 1.3 0 2.3 1.1 2.3 2.4 0 1.3-1 2.3-2.3 2.3z"/><path class="b" d="m93.3 248q-0.4 0.1-0.7 0.2-0.4 0-0.8 0.1-0.4 0-0.8 0-0.4 0-0.9 0-0.3 0-0.7 0-0.4 0-0.8 0-0.4-0.1-0.8-0.1-0.4-0.1-0.8-0.2 0.4-0.1 0.8-0.2 0.4 0 0.8-0.1 0.4 0 0.8 0 0.4 0 0.8 0 0.4 0 0.8 0 0.4 0 0.8 0 0.4 0.1 0.8 0.1 0.4 0.1 0.7 0.2z"/><path class="b" d="m112.7 247.3q-0.4 0.1-0.7 0.2-0.4 0.1-0.8 0.1-0.4 0-0.7 0-0.4 0-0.8 0-0.4 0-0.8 0-0.3 0-0.7 0-0.4 0-0.8-0.1-0.3-0.1-0.7-0.2 0.4-0.1 0.7-0.1 0.4-0.1 0.8-0.1 0.4 0 0.7 0 0.4 0 0.8 0 0.4 0 0.8 0 0.3 0 0.7 0 0.4 0 0.8 0.1 0.3 0 0.7 0.1z"/><path class="a" d="m80 258q-0.2 0-0.4 0-0.2-0.1-0.4-0.1-0.2-0.1-0.4-0.1-0.2 0-0.4-0.1-0.6-0.2-1.2-0.4-0.5-0.2-1-0.4-0.6-0.3-1.1-0.6-0.5-0.3-1-0.6-0.8-0.5-1.5-1.1-0.7-0.7-1.4-1.3-0.6-0.7-1.2-1.5-0.6-0.7-1.1-1.5-0.6-1.1-1.2-2.2-0.6-1.1-1-2.2-0.5-1.2-0.9-2.4-0.4-1.1-0.7-2.4-0.3-1.4-0.6-2.9-0.3-1.5-0.4-3-0.2-1.5-0.2-3 0-1.5 0.1-3 0.1-1.7 0.4-3.4 0.4-1.7 1-3.4 0.5-1.6 1.3-3.2 0.8-1.5 1.8-2.9 0.6-0.8 1.2-1.5 0.6-0.7 1.3-1.4 0.7-0.6 1.4-1.2 0.8-0.6 1.6-1.1 0.4-0.2 0.8-0.5 0.4-0.2 0.9-0.4 0.4-0.3 0.9-0.4 0.4-0.2 0.9-0.4 0.4-0.2 0.9-0.3 0.5-0.2 1-0.3 0.5-0.1 0.9-0.2 0.5-0.1 1-0.1c2.7-0.4 5.4-0.4 8-0.5q1.1 0 2.1-0.2 1-0.1 2-0.3 1-0.2 1.9-0.6 1-0.3 1.9-0.7 1-0.5 1.8-1.1 0.8-0.6 1.4-1.4 0.6-0.7 1.1-1.6 0.4-0.9 0.7-1.9c0.2-1.3 0.2-2.6-0.1-3.8-0.2-1.3-0.8-2.4-1.6-3.4-0.8-1-1.9-1.8-3-2.4-1.2-0.5-2.5-0.8-3.8-0.7q-0.4 0-0.9 0.1-0.4 0.1-0.8 0.2-0.4 0.2-0.8 0.4-0.4 0.2-0.8 0.5-0.3 0.3-0.6 0.6-0.3 0.3-0.5 0.7-0.1 0.4-0.2 0.9-0.1 0.4-0.1 0.8 0.1 0.9 0.5 1.6 0.3 0.8 1 1.4 0.6 0.6 1.3 0.9 0.8 0.4 1.7 0.4 0.8 0 1.6-0.1 0.8-0.2 1.5-0.5 0.7-0.4 1.4-0.8 0.7-0.5 1.2-1.2 0.5-0.5 0.9-1.2 0.4-0.6 0.8-1.3 0.4-0.7 0.6-1.4 0.3-0.8 0.5-1.5 0.2-0.7 0.4-1.4 0.1-0.7 0.3-1.4 0.1-0.7 0.2-1.4 0.1-0.7 0.2-1.4 0.3-2.2 0.5-4.3 0.2-2.2 0.2-4.4 0.1-2.1 0.1-4.3-0.1-2.2-0.2-4.3c-0.1-2-0.2-3.6-0.3-4.7q0-0.8 0-1.3 0 0 0-0.1 0 0 0-0.1 0 0 0-0.1 0 0 0-0.1 0 0.1 0 0.1 0 0.1 0 0.1 0 0.1 0 0.1 0 0.1 0 0.1c0 0.3 0.1 0.7 0.1 1.3 0.1 1 0.3 2.6 0.4 4.7q0.1 2.1 0.2 4.3 0.1 2.2 0 4.4 0 2.1-0.2 4.3-0.1 2.2-0.4 4.3-0.1 0.8-0.2 1.5-0.1 0.7-0.3 1.4-0.1 0.7-0.3 1.4-0.1 0.7-0.3 1.4-0.2 0.8-0.5 1.5-0.3 0.8-0.6 1.5-0.4 0.7-0.8 1.3-0.4 0.7-1 1.3-0.5 0.7-1.2 1.2-0.7 0.5-1.5 0.9-0.8 0.3-1.6 0.5-0.9 0.2-1.7 0.1-1 0-1.8-0.4-0.9-0.4-1.5-1-0.7-0.7-1.1-1.5-0.4-0.9-0.5-1.8-0.1-0.5 0-1 0.1-0.4 0.3-0.9 0.2-0.4 0.6-0.8 0.3-0.4 0.6-0.7 0.4-0.3 0.9-0.6 0.4-0.2 0.8-0.4 0.5-0.1 1-0.2 0.5-0.1 0.9-0.2c1.8 0 3.4 0.5 4.9 1.4 1.4 0.9 2.6 2.2 3.3 3.7 0.8 1.6 1.1 3.3 0.9 5-0.2 1.7-0.9 3.3-2 4.6q-0.3 0.4-0.7 0.8-0.4 0.4-0.8 0.7-0.4 0.3-0.9 0.6-0.4 0.3-0.9 0.5-1 0.5-2 0.8-0.9 0.3-2 0.6-1 0.2-2 0.3-1.1 0.2-2.1 0.2c-2.8 0.1-5.5 0.1-8 0.4q-0.5 0.1-1 0.2-0.5 0.1-0.9 0.2-0.5 0.1-1 0.2-0.4 0.2-0.9 0.3-0.4 0.2-0.9 0.4-0.4 0.2-0.8 0.4-0.5 0.2-0.9 0.4-0.4 0.3-0.8 0.5-0.8 0.5-1.5 1.1-0.7 0.5-1.4 1.2-0.6 0.6-1.2 1.3-0.7 0.7-1.2 1.4-1 1.4-1.8 2.9-0.8 1.5-1.4 3.1-0.5 1.6-0.9 3.3-0.3 1.7-0.4 3.4-0.1 1.5-0.1 3 0 1.5 0.2 3 0.1 1.4 0.4 2.9 0.2 1.5 0.6 2.9 0.3 1.2 0.7 2.4 0.3 1.2 0.8 2.3 0.5 1.2 1 2.3 0.5 1.1 1.2 2.1 0.5 0.8 1 1.5 0.6 0.8 1.2 1.5 0.6 0.6 1.3 1.3 0.7 0.6 1.5 1.1 0.5 0.3 1 0.6 0.5 0.3 1 0.6 0.5 0.3 1.1 0.5 0.5 0.2 1.1 0.4 0.8 0.2 1.2 0.3 0 0 0.1 0 0 0 0.1 0 0 0 0.1 0.1 0 0 0.1 0z"/><path class="a" d="m65.2 66.5h102.6v70.5h-102.6z"/><path class="a" d="m108.6 127.4h14v26.5h-14z"/><path class="a" d="m75.5 152.9v9.6h52.9v142.4h4.9v-142.4l221.1 1.1v141.3h4.7v-141.6l34.2 0.3v-11.5l-317.8 0.8z"/><path class="a" d="m109.3 160.6l20.9 15-1.8 1.8-21.1-15.9 2-0.9z"/><path class="a" d="m378.8 162l-24.2 17.3 1.8 1.7 24.4-18.1-2-0.9z"/><path class="a" d="m152.4 149.4h54.8v4h-54.8z"/></svg>