<svg version="1.2" xmlns="http://www.w3.org/2000/svg" viewBox="0 0 350 119" width="350" height="119"><style>.a{fill:#ee6c4d}</style><path fill-rule="evenodd" class="a" d="m71.4 80.3c0.4 1.1 0.1 2.6-0.7 4-1.3 2.4-5.6 5.9-7.9 7.5-5.4 4.3-10.8 9.3-17.2 12.1-2.7 1.2-5.8 1.8-8.7 0.9-1.6-0.5-2.9-1.4-4.2-2.5-0.4-0.4-4.1-4.3-3.8-4.7-7.4 6.9-21.1 23.4-27.6 12.6-5.8-10.2 8.8-24.7 16.6-28.2 4.3-2 8.1 4.4 3.8 6.4-4.3 1.8-6.6 5.4-9.3 8.9-1.4 1.7-9.7 14.2 0.1 5 5.1-4.6 9.7-10.1 15.6-13.4 1.6-1.1 4.2-0.7 5.1 1.2 2.1 4.6 6.1 7.5 11.2 6 5-1.6 9.2-5.4 13.2-8.6 1.5-1.6 5.2-5.1 6.9-6.5 1.3-1 3-2.9 4.7-2.4 1.2 0.3 1.8 0.9 2.2 1.7zm-42.5 17.3q0 0 0 0 0 0 0 0zm74.1 18.5c-2 0.6-4.1-0.6-4.6-2.6-2.3-8.9 3.3-17.4 2.2-26.3-0.6-4.5-17.5 16.1-18.6 18.1-2.1 3.9-4.2 7.8-6.1 11.9-1.7 4-7.8 1.1-6.7-2.8 2-7.5 3.3-15.1 4.4-22.8 0.2-1.1 0.2-1.2 0-2.7-0.1-1 0.5-3 0.9-3.7 2.6-18.9 4.2-37.9 10.6-55.9 2.8-7.7 11.2-32.4 23.4-29 20.9 5.8-17.4 71.9-26.9 87.8-0.2 1.1-0.3 2.3-0.5 3.5 5.4-7.8 12.1-14.1 20.2-13.8 11.1 0.5 5.6 19.6 4.3 29.3 8.8-5.6 14.6-9.1 20.4-15.6 2-5.3 4.5-10.2 5.5-11.7 2.6-4 9-0.3 6.4 3.7-1 1.7-2 3.2-2.7 5.1-3.1 3.3-3.5 7-1.7 10.8 3.4-3.3 6.3-7 9.6-10.4 3.7-3.8 8.5-10.3 13.7-11.8 11.5-3.5 10.5 6.8 8.6 15.6 9.6-9 24.6-22 27.8-10.4 1 3.2 0.7 6.8 0 10-1.3 7 5.9 10.7 14.6 7.2 3-7.7 11.5-15.2 16.8-17.6 4.3-2 8.1 4.4 3.8 6.4q-1.1 0.5-2.1 1.1c-2.1 3.7-5.4 8.1-9.8 11.7-2.2 3.6-3.9 7.4 2.8 1.1 5-4.6 9.6-10.1 15.6-13.4 1.5-1.1 4.1-0.7 5 1.2 2.2 4.6 6.2 7.5 11.2 6 5.1-1.6 9.2-5.4 13.2-8.6 1.5-1.6 5.2-5.1 6.9-6.5 1.4-1 3.1-2.9 4.7-2.4 1.3 0.3 1.9 0.9 2.2 1.7 0.4 1.1 0.1 2.6-0.6 4-1.4 2.4-5.7 5.9-8 7.5-5.4 4.3-10.7 9.3-17.2 12.1-2.7 1.2-5.8 1.8-8.7 0.9-1.5-0.5-2.9-1.4-4.1-2.5-0.5-0.4-4.2-4.3-3.9-4.7-7.3 6.9-21.1 23.4-27.5 12.6q-1-1.8-1.3-3.7c-3.9 1.2-8.2 1.5-12.9 0.4-6.5-1.5-8.5-8.7-8.2-14.5 0.6-13.2-7.9 0.4-12.8 5.2-3.9 3.5-7.2 6.3-11.7 8.7-2.3 1.1-5.8-0.3-5.5-3.2 0.3-4 4.6-20.4-3.5-12.6-2.9 2.8-5.5 5.7-8.3 8.8-4 4.4-8.3 9.8-14.7 9.8-3.8 0-5.4-2.2-5.7-5.4-5.5 5.6-12.3 9.8-20.5 12.4zm-3.2-101.2c-9.9 16.7-13.5 35.7-15.9 54.8 7-11.8 13.6-24 17.4-37.1 1.6-4.9 8.3-34.1-1.5-17.7zm135.8 82.7q0 0 0 0 0 0 0 0zm107.7-10.1c2.8-3.8 8.7 0.4 6 4.4-19.2 26.4-38.5 19.6-45 2.9-4.3 7.4-3.1 4.8-6.3 10-8.6 13.8-21.5 15.8-23 4.3-2.6-19.2 9.2-32.3 19.6-38.3 1.2-0.6 4.3-1.2 5.2-0.8 1.7-53.6 32-80.1 31.9-52.7 0.4 12.9-7.1 38.6-23 70 5.2 17.6 17.6 23.5 34.6 0.2zm-52.1 13.8c3.1-4.5 8.1-11.4 10.3-15.4-1.1-5.8-1.2-7.3-1.4-9.9-0.3 0.6-1.4 1.1-2.1 1.7-5.2 4.1-8.5 7.3-12.1 14.8-6.2 12.8-4 23.2 5.3 8.8zm15.2-23.6c6-10.6 21.1-51.2 18.1-61.8-2.5-7.8-22.1 31.1-18.1 61.8z"/></svg>